<?xml version="1.0" encoding="UTF-8"?>
<svg xmlns="http://www.w3.org/2000/svg" xmlns:xlink="http://www.w3.org/1999/xlink" width="px" height="px" viewBox="0 0 912 624" version="1.1">
<defs>
<clipPath id="clip1">
  <path d="M 126.75 0 L 785.25 0 L 785.25 624 L 126.75 624 Z M 126.75 0 "/>
</clipPath>
</defs>
<g id="surface1">
<g clip-path="url(#clip1)" clip-rule="nonzero">
<path style=" stroke:none;fill-rule:nonzero;fill:rgb(100%,100%,100%);fill-opacity:1;" d="M 785.25 0 L 126.75 0 L 126.75 658.5 L 785.25 658.5 Z M 785.25 0 "/>
</g>
<path style=" stroke:none;fill-rule:nonzero;fill:rgb(94.901961%,94.901961%,94.901961%);fill-opacity:1;" d="M 693.1875 610.785156 C 717.71875 610.785156 737.601562 608.824219 737.601562 606.40625 C 737.601562 603.988281 717.71875 602.027344 693.1875 602.027344 C 668.65625 602.027344 648.773438 603.988281 648.773438 606.40625 C 648.773438 608.824219 668.65625 610.785156 693.1875 610.785156 Z M 693.1875 610.785156 "/>
<path style=" stroke:none;fill-rule:nonzero;fill:rgb(94.901961%,94.901961%,94.901961%);fill-opacity:1;" d="M 227.757812 610.785156 C 252.289062 610.785156 272.175781 608.824219 272.175781 606.40625 C 272.175781 603.988281 252.289062 602.027344 227.757812 602.027344 C 203.226562 602.027344 183.34375 603.988281 183.34375 606.40625 C 183.34375 608.824219 203.226562 610.785156 227.757812 610.785156 Z M 227.757812 610.785156 "/>
<path style=" stroke:none;fill-rule:nonzero;fill:rgb(94.901961%,94.901961%,94.901961%);fill-opacity:1;" d="M 459.765625 597.023438 C 459.765625 599.441406 420.574219 601.402344 372.226562 601.402344 C 323.878906 601.402344 284.6875 599.441406 284.6875 597.023438 C 284.6875 594.605469 323.878906 592.644531 372.226562 592.644531 C 420.574219 592.644531 459.765625 594.601562 459.765625 597.023438 Z M 459.765625 597.023438 "/>
<path style=" stroke:none;fill-rule:nonzero;fill:rgb(94.901961%,94.901961%,94.901961%);fill-opacity:1;" d="M 643.683594 597.023438 C 643.683594 599.441406 604.492188 601.402344 556.144531 601.402344 C 507.796875 601.402344 468.605469 599.441406 468.605469 597.023438 C 468.605469 594.605469 507.796875 592.644531 556.144531 592.644531 C 604.492188 592.644531 643.683594 594.601562 643.683594 597.023438 Z M 643.683594 597.023438 "/>
<path style=" stroke:none;fill-rule:nonzero;fill:rgb(46.666667%,58.823532%,40.392157%);fill-opacity:1;" d="M 657.023438 495.304688 C 656.992188 485.9375 648.25 478.992188 639.140625 481.167969 C 637.484375 481.5625 635.769531 481.773438 634.015625 481.78125 C 619.277344 481.828125 607.285156 467.460938 607.230469 449.691406 C 607.171875 431.917969 619.074219 417.476562 633.808594 417.429688 C 635.5625 417.421875 637.277344 417.621094 638.9375 418.007812 C 648.0625 420.125 656.757812 413.125 656.726562 403.757812 L 656.632812 374.234375 C 656.605469 366.183594 650.0625 359.679688 642.011719 359.707031 L 612.707031 359.800781 C 603.429688 359.832031 596.675781 368.375 598.519531 377.464844 C 598.804688 378.890625 598.957031 380.351562 598.960938 381.839844 C 599.011719 396.578125 584.644531 408.570312 566.875 408.628906 C 549.101562 408.683594 534.660156 396.785156 534.613281 382.046875 C 534.605469 380.558594 534.75 379.097656 535.027344 377.671875 C 536.8125 368.566406 530.003906 360.066406 520.726562 360.097656 L 491.421875 360.191406 C 483.371094 360.21875 476.867188 366.761719 476.894531 374.8125 L 477.027344 416.648438 C 480.351562 420.679688 485.789062 422.847656 491.4375 421.695312 C 492.851562 421.410156 494.308594 421.253906 495.792969 421.246094 C 510.527344 421.171875 522.546875 435.519531 522.636719 453.289062 C 522.726562 471.058594 510.851562 485.523438 496.117188 485.597656 C 494.632812 485.605469 493.175781 485.464844 491.757812 485.191406 C 486.019531 484.082031 480.535156 486.386719 477.265625 490.558594 L 477.378906 525.402344 C 477.40625 533.453125 483.949219 539.957031 492 539.929688 L 642.589844 539.445312 C 650.640625 539.417969 657.144531 532.875 657.117188 524.824219 Z M 657.023438 495.304688 "/>
<path style=" stroke:none;fill-rule:nonzero;fill:rgb(97.254902%,76.078433%,64.705884%);fill-opacity:1;" d="M 191.542969 601.054688 L 192.519531 595.355469 L 197.316406 595.5625 L 196.273438 600.777344 Z M 191.542969 601.054688 "/>
<path style=" stroke:none;fill-rule:nonzero;fill:rgb(97.254902%,76.078433%,64.705884%);fill-opacity:1;" d="M 238.53125 601.054688 L 239.226562 595.355469 L 244.859375 594.9375 L 243.816406 600.984375 Z M 238.53125 601.054688 "/>
<path style=" stroke:none;fill-rule:nonzero;fill:rgb(23.137255%,27.058825%,35.294119%);fill-opacity:1;" d="M 215.386719 604.738281 L 197.035156 598.621094 L 191.753906 598.34375 L 189.667969 607.238281 L 194.394531 606.960938 L 194.949219 604.460938 L 199.816406 606.683594 L 215.664062 606.683594 Z M 215.386719 604.738281 "/>
<path style=" stroke:none;fill-rule:nonzero;fill:rgb(23.137255%,27.058825%,35.294119%);fill-opacity:1;" d="M 262.097656 604.390625 L 243.746094 598.273438 L 238.464844 597.996094 L 237.90625 606.890625 L 242.632812 606.613281 L 243.191406 604.113281 L 246.527344 606.335938 L 262.375 606.335938 Z M 262.097656 604.390625 "/>
<path style=" stroke:none;fill-rule:nonzero;fill:rgb(6.27451%,21.960784%,35.686275%);fill-opacity:1;" d="M 221.148438 380.371094 C 221.148438 380.371094 206.089844 381.335938 205.449219 371.402344 C 204.808594 361.472656 214.738281 353.785156 215.382812 349.617188 C 216.023438 345.453125 213.460938 339.6875 220.507812 338.085938 C 227.554688 336.484375 229.476562 350.257812 228.835938 356.984375 C 228.195312 363.714844 221.148438 380.371094 221.148438 380.371094 Z M 221.148438 380.371094 "/>
<path style=" stroke:none;fill-rule:nonzero;fill:rgb(73.725492%,73.725492%,74.509805%);fill-opacity:1;" d="M 235.890625 429.785156 C 235.890625 429.785156 250.070312 435.207031 258.410156 431.871094 C 266.753906 428.535156 269.253906 419.773438 269.253906 419.773438 L 269.253906 408.933594 C 269.253906 408.933594 261.328125 423.527344 238.808594 414.769531 C 238.394531 414.769531 235.890625 429.785156 235.890625 429.785156 Z M 235.890625 429.785156 "/>
<path style=" stroke:none;fill-rule:nonzero;fill:rgb(97.254902%,76.078433%,64.705884%);fill-opacity:1;" d="M 264.25 353.464844 C 264.25 353.464844 259.664062 345.125 260.5 343.871094 C 261.332031 342.621094 269.257812 338.449219 271.757812 339.285156 C 274.261719 340.117188 273.84375 352.214844 273.84375 352.214844 Z M 264.25 353.464844 "/>
<path style=" stroke:none;fill-rule:nonzero;fill:rgb(97.254902%,76.078433%,64.705884%);fill-opacity:1;" d="M 218.585938 388.0625 L 220.507812 375.566406 C 220.507812 375.566406 215.0625 374.925781 215.0625 370.441406 C 215.0625 365.957031 221.789062 367.238281 221.789062 367.238281 L 223.070312 364.675781 C 223.070312 364.675781 218.265625 361.152344 219.546875 356.984375 C 220.828125 352.820312 226.273438 351.539062 226.273438 351.539062 C 226.273438 351.539062 241.332031 362.753906 240.367188 375.246094 C 235.882812 380.371094 231.078125 379.09375 231.078125 379.09375 L 231.71875 390.304688 Z M 218.585938 388.0625 "/>
<path style=" stroke:none;fill-rule:nonzero;fill:rgb(71.372551%,30.980393%,16.862746%);fill-opacity:1;" d="M 434.992188 155.546875 L 405.1875 155.640625 C 395.910156 155.671875 389.097656 147.167969 390.886719 138.066406 C 391.164062 136.640625 391.308594 135.171875 391.304688 133.679688 C 391.257812 118.941406 376.8125 107.042969 359.042969 107.101562 C 341.273438 107.15625 326.90625 119.148438 326.953125 133.886719 C 326.957031 135.378906 327.109375 136.847656 327.402344 138.269531 C 329.246094 147.363281 322.488281 155.90625 313.210938 155.9375 L 284.402344 156.03125 C 276.351562 156.054688 269.847656 162.601562 269.875 170.652344 L 269.96875 200.171875 C 270 209.539062 278.742188 216.488281 287.851562 214.308594 C 289.507812 213.914062 291.222656 213.703125 292.976562 213.699219 C 307.710938 213.648438 319.703125 228.015625 319.761719 245.789062 C 319.816406 263.558594 307.917969 278 293.183594 278.050781 C 291.429688 278.054688 289.714844 277.855469 288.054688 277.46875 C 278.929688 275.351562 270.234375 282.351562 270.261719 291.722656 L 270.359375 321.242188 C 270.382812 329.292969 276.929688 335.796875 284.980469 335.769531 L 435.570312 335.285156 C 443.617188 335.257812 450.125 328.714844 450.097656 320.664062 L 449.613281 170.074219 C 449.589844 162.023438 443.042969 155.519531 434.992188 155.546875 Z M 434.992188 155.546875 "/>
<path style=" stroke:none;fill-rule:nonzero;fill:rgb(31.37255%,43.137255%,24.705882%);fill-opacity:1;" d="M 601.410156 334.035156 C 601.101562 332.582031 600.65625 331.1875 600.089844 329.859375 C 596.4375 321.332031 601.304688 311.597656 610.375 309.675781 L 639.042969 303.601562 C 646.917969 301.9375 651.949219 294.199219 650.28125 286.324219 L 644.210938 257.660156 C 642.289062 248.585938 649.21875 240.191406 658.492188 240.070312 C 659.941406 240.054688 661.394531 239.894531 662.84375 239.585938 C 677.261719 236.535156 685.964844 219.964844 682.285156 202.582031 C 678.601562 185.199219 663.929688 173.578125 649.511719 176.632812 C 648.0625 176.941406 646.667969 177.386719 645.339844 177.953125 C 636.8125 181.605469 627.074219 176.738281 625.152344 167.667969 L 619.082031 139 C 617.414062 131.128906 609.679688 126.09375 601.804688 127.761719 L 454.480469 158.960938 C 446.605469 160.628906 441.574219 168.367188 443.242188 176.238281 L 449.3125 204.90625 C 451.234375 213.976562 444.304688 222.375 435.027344 222.492188 C 433.585938 222.511719 432.128906 222.667969 430.679688 222.976562 C 416.261719 226.03125 407.558594 242.597656 411.242188 259.984375 C 414.921875 277.367188 429.59375 288.988281 444.007812 285.933594 C 445.460938 285.625 446.855469 285.179688 448.183594 284.613281 C 456.710938 280.960938 466.449219 285.824219 468.371094 294.898438 L 474.441406 323.5625 C 476.109375 331.4375 483.84375 336.472656 491.71875 334.804688 L 520.382812 328.734375 C 529.457031 326.8125 537.851562 333.742188 537.972656 343.015625 C 537.988281 344.460938 538.148438 345.914062 538.457031 347.367188 C 541.507812 361.785156 558.078125 370.484375 575.460938 366.804688 C 592.847656 363.121094 604.460938 348.453125 601.410156 334.035156 Z M 601.410156 334.035156 "/>
<path style=" stroke:none;fill-rule:nonzero;fill:rgb(71.372551%,30.980393%,16.862746%);fill-opacity:1;" d="M 318.277344 172.734375 C 320.03125 173.609375 324.628906 230.769531 324.628906 230.769531 L 335.796875 233.617188 L 344.558594 199.007812 L 358.34375 230.960938 L 355.601562 155.4375 L 325.695312 148.6875 C 323.214844 152.960938 318.65625 155.917969 313.214844 155.9375 L 284.40625 156.03125 C 277.210938 156.054688 271.269531 161.285156 270.097656 168.140625 C 281.726562 173.015625 299.695312 177.894531 318.277344 172.734375 Z M 318.277344 172.734375 "/>
<path style=" stroke:none;fill-rule:nonzero;fill:rgb(88.235295%,72.549021%,56.470591%);fill-opacity:1;" d="M 396.625 491.808594 C 396.894531 493.542969 396.957031 495.269531 396.828125 496.96875 C 396.109375 506.308594 404.347656 513.847656 413.601562 512.402344 L 442.769531 507.847656 C 450.722656 506.605469 456.164062 499.152344 454.921875 491.199219 L 450.402344 462.25 C 448.972656 453.085938 456.34375 445.078125 465.613281 445.457031 C 467.058594 445.515625 468.519531 445.433594 469.984375 445.207031 C 484.542969 442.933594 494.125 426.859375 491.386719 409.304688 C 488.644531 391.746094 474.621094 379.355469 460.058594 381.628906 C 458.59375 381.855469 457.179688 382.226562 455.820312 382.722656 C 447.109375 385.910156 437.648438 380.527344 436.21875 371.363281 L 431.699219 342.410156 C 430.457031 334.457031 423.003906 329.019531 415.050781 330.261719 L 386.109375 334.777344 C 376.945312 336.210938 368.945312 328.839844 369.316406 319.578125 C 369.371094 318.140625 369.292969 316.6875 369.066406 315.230469 C 366.792969 300.671875 350.714844 291.089844 333.160156 293.832031 C 315.601562 296.570312 303.210938 310.597656 305.484375 325.15625 C 305.710938 326.613281 306.078125 328.019531 306.570312 329.371094 C 309.746094 338.082031 304.371094 347.539062 295.210938 348.964844 L 266.265625 353.484375 C 258.3125 354.726562 252.871094 362.179688 254.113281 370.132812 L 277.335938 518.921875 C 278.578125 526.875 286.03125 532.316406 293.984375 531.074219 L 323.152344 526.519531 C 332.410156 525.074219 337.957031 515.386719 334.429688 506.710938 C 333.785156 505.128906 333.320312 503.46875 333.046875 501.734375 C 330.777344 487.175781 343.167969 473.152344 360.722656 470.410156 C 378.277344 467.667969 394.351562 477.25 396.625 491.808594 Z M 396.625 491.808594 "/>
<path style=" stroke:none;fill-rule:nonzero;fill:rgb(73.725492%,73.725492%,74.509805%);fill-opacity:1;" d="M 264.945312 353.605469 C 264.945312 353.605469 268.839844 378.070312 266.058594 381.40625 C 263.277344 384.742188 232.136719 386.96875 232.136719 386.96875 L 216.011719 386.410156 L 216.011719 391.414062 C 216.011719 391.414062 208.226562 396.421875 206.558594 401.980469 C 204.890625 407.542969 212.121094 460.367188 212.121094 460.367188 L 239.367188 460.367188 C 239.367188 460.367188 246.59375 429.785156 247.152344 424.78125 C 247.707031 419.773438 244.371094 410.320312 244.371094 410.320312 C 244.371094 410.320312 271.0625 399.199219 275.511719 394.195312 C 279.960938 389.191406 273.285156 351.933594 273.285156 351.933594 Z M 264.945312 353.605469 "/>
<path style=" stroke:none;fill-rule:nonzero;fill:rgb(23.137255%,27.058825%,35.294119%);fill-opacity:1;" d="M 239.226562 459.8125 L 211.285156 460.644531 C 211.285156 460.644531 209.199219 468.570312 210.453125 476.078125 C 211.703125 483.585938 219.90625 523.203125 219.90625 523.203125 C 219.90625 523.203125 206.699219 545.304688 203.363281 556.152344 C 200.027344 566.992188 192.519531 595.355469 192.519531 595.355469 L 198.777344 595.980469 C 198.777344 595.980469 229.21875 531.128906 231.304688 526.957031 C 233.390625 522.785156 233.390625 522.785156 233.390625 522.785156 L 226.089844 482.542969 L 231.097656 482.542969 L 242.703125 526.539062 L 239.226562 595.355469 L 246.109375 595.773438 L 257.164062 527.097656 L 248.140625 483.953125 Z M 239.226562 459.8125 "/>
<path style=" stroke:none;fill-rule:nonzero;fill:rgb(1.960784%,14.901961%,24.705882%);fill-opacity:1;" d="M 708.816406 589.882812 L 713.984375 588.160156 C 713.984375 588.160156 707.378906 547.964844 703.074219 535.90625 C 698.765625 523.847656 695.609375 516.097656 695.609375 516.097656 C 695.609375 516.097656 703.933594 474.179688 705.371094 469.296875 C 706.804688 464.417969 707.953125 450.0625 703.648438 442.597656 C 702.785156 440.585938 682.6875 506.910156 682.6875 506.910156 L 683.835938 521.839844 Z M 708.816406 589.882812 "/>
<path style=" stroke:none;fill-rule:nonzero;fill:rgb(71.372551%,30.980393%,16.862746%);fill-opacity:1;" d="M 651.824219 318.710938 L 645.796875 320.867188 L 664.3125 375.128906 L 678.09375 377.710938 Z M 651.824219 318.710938 "/>
<path style=" stroke:none;fill-rule:nonzero;fill:rgb(97.254902%,76.078433%,64.705884%);fill-opacity:1;" d="M 635.601562 320.292969 L 634.742188 309.957031 L 632.730469 313.402344 C 632.730469 313.402344 628.425781 303.351562 627.5625 301.054688 C 623.832031 304.789062 625.839844 316.847656 629.859375 320.867188 C 631.007812 321.152344 635.601562 320.292969 635.601562 320.292969 Z M 635.601562 320.292969 "/>
<path style=" stroke:none;fill-rule:nonzero;fill:rgb(97.254902%,76.078433%,64.705884%);fill-opacity:1;" d="M 651.824219 318.710938 L 652.542969 310.53125 L 649.382812 313.6875 C 649.382812 313.6875 647.375 304.789062 642.492188 302.203125 C 641.34375 310.816406 645.796875 320.867188 645.796875 320.867188 Z M 651.824219 318.710938 "/>
<path style=" stroke:none;fill-rule:nonzero;fill:rgb(71.372551%,30.980393%,16.862746%);fill-opacity:1;" d="M 629.859375 320.867188 L 647.949219 367.808594 L 668.191406 391.0625 L 668.652344 399.066406 L 673.359375 404.414062 L 677.234375 441.449219 L 703.933594 440.589844 L 701.351562 391.925781 L 681.109375 376.851562 L 655.699219 358.765625 L 635.890625 317.851562 Z M 629.859375 320.867188 "/>
<path style=" stroke:none;fill-rule:nonzero;fill:rgb(97.254902%,76.078433%,64.705884%);fill-opacity:1;" d="M 675.511719 348.429688 C 675.511719 348.429688 671.777344 358.476562 673.5 367.953125 C 681.539062 371.972656 683.550781 369.960938 683.550781 369.960938 L 684.410156 379.433594 L 690.007812 385.035156 L 689.867188 344.984375 C 689.867188 344.984375 677.519531 342.6875 675.511719 348.429688 Z M 675.511719 348.429688 "/>
<path style=" stroke:none;fill-rule:nonzero;fill:rgb(1.960784%,13.725491%,22.745098%);fill-opacity:1;" d="M 673.5 345.558594 L 682.6875 355.605469 C 682.6875 355.605469 681.828125 405.847656 689.003906 415.035156 C 696.183594 424.222656 705.371094 420.203125 705.371094 420.203125 C 705.371094 420.203125 705.082031 357.617188 702.210938 343.261719 C 700.324219 333.816406 678.667969 328.90625 673.5 345.558594 Z M 673.5 345.558594 "/>
<path style=" stroke:none;fill-rule:nonzero;fill:rgb(6.27451%,21.960784%,35.686275%);fill-opacity:1;" d="M 677.234375 441.449219 L 674.9375 504.039062 L 683.550781 594.191406 L 688.71875 594.191406 C 688.71875 594.191406 689.867188 546.53125 690.726562 538.492188 C 691.589844 530.453125 687.855469 508.058594 687.855469 508.058594 L 697.90625 465.277344 C 697.90625 465.277344 706.804688 455.230469 703.933594 440.589844 C 704.796875 440.875 677.234375 441.449219 677.234375 441.449219 Z M 677.234375 441.449219 "/>
<path style=" stroke:none;fill-rule:nonzero;fill:rgb(12.156863%,15.294118%,18.039216%);fill-opacity:1;" d="M 688.71875 594.191406 L 683.550781 594.191406 L 676.804688 602.300781 L 670.34375 603.589844 L 670.128906 606.175781 L 680.894531 606.175781 L 684.554688 598.640625 L 686.707031 598.640625 L 686.707031 606.605469 L 688.644531 606.605469 Z M 688.71875 594.191406 "/>
<path style=" stroke:none;fill-rule:nonzero;fill:rgb(12.156863%,15.294118%,18.039216%);fill-opacity:1;" d="M 713.917969 587.613281 L 709.003906 589.199219 L 705.074219 598.996094 L 699.328125 602.210938 L 699.917969 604.734375 L 710.164062 601.421875 L 711.328125 593.128906 L 713.375 592.464844 L 715.828125 600.046875 L 717.671875 599.449219 Z M 713.917969 587.613281 "/>
<path style=" stroke:none;fill-rule:nonzero;fill:rgb(97.254902%,76.078433%,64.705884%);fill-opacity:1;" d="M 298.714844 58.289062 L 294.042969 72.59375 L 301.929688 75.515625 L 306.015625 68.214844 Z M 298.714844 58.289062 "/>
<path style=" stroke:none;fill-rule:nonzero;fill:rgb(1.960784%,13.725491%,22.745098%);fill-opacity:1;" d="M 311.855469 54.492188 C 311.855469 54.492188 317.109375 48.070312 315.359375 41.355469 C 313.605469 34.636719 295.796875 36.097656 290.25 38.433594 C 284.703125 53.910156 292 63.542969 301.050781 64.710938 C 305.140625 65.003906 311.855469 54.492188 311.855469 54.492188 Z M 311.855469 54.492188 "/>
<path style=" stroke:none;fill-rule:nonzero;fill:rgb(1.960784%,13.725491%,22.745098%);fill-opacity:1;" d="M 289.664062 38.726562 C 289.664062 38.726562 285.578125 30.550781 276.527344 32.59375 C 267.476562 34.636719 271.855469 51.28125 273.898438 57.410156 C 275.945312 63.542969 265.726562 72.59375 262.21875 69.96875 C 263.097656 79.015625 275.066406 81.355469 280.90625 75.515625 C 286.746094 69.675781 285.578125 58.289062 282.949219 52.742188 C 280.324219 47.195312 282.65625 34.347656 289.664062 38.726562 Z M 289.664062 38.726562 "/>
<path style=" stroke:none;fill-rule:nonzero;fill:rgb(9.411765%,53.725493%,55.29412%);fill-opacity:1;" d="M 361.632812 104.074219 L 357.914062 103.316406 L 350.480469 139.640625 L 354.199219 140.402344 Z M 361.632812 104.074219 "/>
<path style=" stroke:none;fill-rule:nonzero;fill:rgb(9.411765%,53.725493%,55.29412%);fill-opacity:1;" d="M 354.210938 139.863281 L 322.777344 136.324219 L 323.195312 133.433594 L 354.628906 136.976562 Z M 354.210938 139.863281 "/>
<path style=" stroke:none;fill-rule:nonzero;fill:rgb(97.254902%,76.078433%,64.705884%);fill-opacity:1;" d="M 299.882812 55.660156 C 299.882812 55.660156 296.089844 51.574219 294.921875 55.660156 C 293.753906 59.75 299.007812 60.917969 299.007812 60.917969 C 299.007812 60.917969 301.050781 71.71875 311.855469 73.765625 C 318.863281 58.875 313.605469 47.777344 313.605469 47.777344 C 313.605469 47.777344 304.261719 56.535156 299.882812 55.660156 Z M 299.882812 55.660156 "/>
<path style=" stroke:none;fill-rule:nonzero;fill:rgb(1.960784%,14.901961%,24.705882%);fill-opacity:1;" d="M 353.605469 220.917969 L 341.636719 168.652344 L 295.796875 154.929688 L 346.015625 153.179688 L 348.71875 151.695312 C 351.691406 150.066406 355.351562 152.054688 355.601562 155.4375 L 360.320312 219.164062 Z M 353.605469 220.917969 "/>
<path style=" stroke:none;fill-rule:nonzero;fill:rgb(73.725492%,73.725492%,74.509805%);fill-opacity:1;" d="M 304.847656 77.851562 L 292.585938 67.632812 L 292.003906 74.347656 C 292.003906 74.347656 273.476562 100.6875 274.484375 113.765625 C 275.066406 121.355469 285.871094 122.816406 285.871094 122.816406 L 284.117188 136.828125 L 313.605469 136.828125 L 313.460938 131.28125 L 327.328125 132.742188 L 328.207031 126.902344 L 313.605469 120.769531 L 312.4375 104.710938 L 314.773438 93.617188 Z M 304.847656 77.851562 "/>
<path style=" stroke:none;fill-rule:nonzero;fill:rgb(42.352942%,42.352942%,49.803922%);fill-opacity:1;" d="M 299.007812 91.570312 C 299.007812 91.570312 286.746094 102.375 289.375 107.921875 C 292 113.46875 303.679688 116.972656 303.679688 116.972656 C 303.679688 116.972656 294.335938 111.425781 293.753906 107.046875 C 293.167969 102.667969 299.007812 91.570312 299.007812 91.570312 Z M 299.007812 91.570312 "/>
<path style=" stroke:none;fill-rule:nonzero;fill:rgb(97.254902%,76.078433%,64.705884%);fill-opacity:1;" d="M 327.957031 127.046875 C 328.191406 126.554688 335.523438 126.621094 335.523438 126.621094 L 341.695312 129.160156 L 345.578125 133.90625 C 346.117188 134.75 345.132812 135.730469 344.292969 135.191406 L 339.804688 131.894531 C 339.804688 131.894531 337.160156 133.667969 334.710938 133.484375 C 332.265625 133.296875 327.34375 131.949219 327.34375 131.949219 Z M 327.957031 127.046875 "/>
<path style=" stroke:none;fill-rule:nonzero;fill:rgb(6.27451%,21.960784%,35.686275%);fill-opacity:1;" d="M 284.117188 136.828125 C 284.117188 136.828125 280.03125 152.59375 288.789062 155.804688 C 297.550781 159.019531 336.671875 156.683594 336.671875 156.683594 C 336.671875 156.683594 328.207031 186.464844 324.410156 218.871094 C 324.992188 218.871094 330.832031 220.625 330.832031 220.625 C 330.832031 220.625 357.695312 143.542969 357.988281 140.914062 C 358.28125 138.289062 313.605469 136.828125 313.605469 136.828125 Z M 284.117188 136.828125 "/>
<path style=" stroke:none;fill-rule:nonzero;fill:rgb(97.254902%,76.078433%,64.705884%);fill-opacity:1;" d="M 323.753906 223.542969 L 324.410156 218.871094 L 330.835938 220.625 L 329.007812 225.296875 Z M 323.753906 223.542969 "/>
<path style=" stroke:none;fill-rule:nonzero;fill:rgb(97.254902%,76.078433%,64.705884%);fill-opacity:1;" d="M 354.847656 225.078125 L 353.605469 220.917969 L 360.324219 219.164062 L 360.980469 224.417969 Z M 354.847656 225.078125 "/>
<path style=" stroke:none;fill-rule:nonzero;fill:rgb(1.960784%,13.725491%,22.745098%);fill-opacity:1;" d="M 319.8125 235.367188 L 323.097656 223.761719 L 330.757812 225.734375 C 330.757812 225.734375 332.730469 231.863281 335.796875 233.617188 C 338.863281 235.367188 342.148438 236.683594 342.148438 236.683594 L 341.269531 240.84375 C 341.269531 240.84375 334.484375 239.746094 331.855469 238.214844 C 329.226562 236.683594 327.253906 231.207031 327.253906 231.207031 L 324.628906 230.769531 L 322.4375 236.679688 Z M 319.8125 235.367188 "/>
<path style=" stroke:none;fill-rule:nonzero;fill:rgb(1.960784%,13.725491%,22.745098%);fill-opacity:1;" d="M 356.128906 237.242188 L 353.808594 225.40625 L 361.535156 223.695312 C 361.535156 223.695312 366.066406 228.273438 369.589844 228.449219 C 373.117188 228.625 376.640625 228.3125 376.640625 228.3125 L 377.742188 232.417969 C 377.742188 232.417969 371.191406 234.511719 368.15625 234.332031 C 365.117188 234.15625 360.886719 230.164062 360.886719 230.164062 L 358.34375 230.960938 L 359.066406 237.222656 Z M 356.128906 237.242188 "/>
</g>
</svg>
