<?xml version="1.0" encoding="UTF-8"?>
<svg xmlns="http://www.w3.org/2000/svg" xmlns:xlink="http://www.w3.org/1999/xlink" width="px" height="px" viewBox="0 0 912 624" version="1.1">
<defs>
<linearGradient id="linear0" gradientUnits="userSpaceOnUse" x1="835.502014" y1="399.18399" x2="908.797974" y2="399.18399" gradientTransform="matrix(0.75,0,0,0.75,0,0)">
<stop offset="0" style="stop-color:rgb(85.490196%,89.019608%,99.607843%);stop-opacity:1;"/>
<stop offset="1" style="stop-color:rgb(91.372549%,93.72549%,99.215686%);stop-opacity:1;"/>
</linearGradient>
</defs>
<g id="surface1">
<path style=" stroke:none;fill-rule:nonzero;fill:rgb(94.901961%,94.901961%,94.901961%);fill-opacity:1;" d="M 785.765625 417.769531 C 774.277344 407.617188 759.578125 401.992188 746.667969 393.722656 C 733.761719 385.457031 721.828125 372.742188 721.628906 357.402344 C 721.46875 345.035156 729.082031 333.769531 738.316406 325.554688 C 747.546875 317.335938 758.527344 311.339844 768.210938 303.65625 C 791.746094 284.988281 806.96875 255.671875 807 225.609375 C 807.039062 195.542969 791.234375 165.539062 765.546875 149.976562 C 739.851562 134.414062 704.996094 134.664062 680.417969 151.9375 C 660.898438 165.648438 649.308594 187.703125 634.402344 206.339844 C 619.5 224.976562 597.171875 241.628906 573.757812 237.097656 C 547.542969 232.023438 533.75 204.195312 517.625 182.882812 C 500.335938 160.03125 467.132812 126.109375 421.804688 126.855469 C 395.675781 127.289062 369.851562 139.230469 349.175781 155.675781 C 320.917969 178.15625 301.144531 209.632812 285.445312 242.167969 C 277.492188 258.644531 269.015625 277.015625 252.230469 284.253906 C 236.9375 290.847656 218.777344 285.878906 204.976562 276.550781 C 191.179688 267.21875 180.550781 254.023438 168.894531 242.117188 C 157.242188 230.210938 143.640625 219.082031 127.3125 215.804688 C 102.613281 210.847656 76.253906 226.691406 66.28125 249.851562 C 56.308594 273.015625 61.707031 301.226562 77.148438 321.152344 C 92.589844 341.082031 116.878906 353.050781 141.828125 356.542969 C 153.101562 358.121094 167.003906 359.769531 171.148438 370.382812 C 174.980469 380.199219 166.820312 391.046875 157.226562 395.394531 C 147.636719 399.738281 136.714844 400 126.6875 403.210938 C 96.070312 413.027344 80.136719 450.78125 88.429688 481.878906 C 96.726562 512.976562 124.265625 536.261719 154.699219 546.640625 C 185.132812 557.023438 218.214844 556.257812 250.160156 552.640625 C 280.171875 549.242188 310 543.425781 340.152344 542.378906 L 340.0625 542.847656 C 377.921875 576.804688 432.863281 590.59375 482.242188 578.53125 C 508.238281 572.183594 532.648438 559.195312 559.265625 556.457031 C 582.566406 554.058594 605.824219 559.695312 628.914062 563.632812 C 660.707031 569.058594 693.703125 571.253906 724.945312 563.230469 C 756.179688 555.203125 785.632812 535.757812 799.867188 506.785156 C 814.109375 477.8125 809.949219 439.132812 785.765625 417.769531 Z M 785.765625 417.769531 "/>
<path style=" stroke:none;fill-rule:nonzero;fill:rgb(86.274511%,86.666667%,87.843138%);fill-opacity:1;" d="M 692.277344 141.355469 C 702.941406 173.316406 757.425781 361.859375 589.894531 444.820312 C 589.894531 444.820312 522.113281 329.945312 687.433594 140.375 C 688.878906 138.71875 691.578125 139.265625 692.277344 141.355469 Z M 692.277344 141.355469 "/>
<path style=" stroke:none;fill-rule:nonzero;fill:url(#linear0);" d="M 681.597656 173.519531 C 680.746094 184.253906 679.671875 194.960938 678.503906 205.664062 C 677.335938 216.363281 676.039062 227.050781 674.621094 237.71875 C 673.203125 248.390625 671.660156 259.042969 669.988281 269.675781 C 668.316406 280.3125 666.476562 290.917969 664.503906 301.503906 C 660.523438 322.660156 655.921875 343.71875 650.183594 364.488281 C 647.34375 374.878906 644.128906 385.171875 640.523438 395.332031 C 636.90625 405.480469 632.882812 415.507812 628.070312 425.183594 C 627.882812 425.558594 627.425781 425.714844 627.046875 425.527344 C 626.671875 425.339844 626.519531 424.878906 626.707031 424.503906 L 626.707031 424.5 L 626.710938 424.496094 C 631.515625 414.914062 635.554688 404.953125 639.195312 394.851562 C 642.816406 384.746094 646.058594 374.492188 648.925781 364.136719 C 654.722656 343.4375 659.390625 322.421875 663.4375 301.300781 C 665.445312 290.734375 667.316406 280.144531 669.027344 269.523438 C 670.730469 258.902344 672.308594 248.261719 673.765625 237.605469 C 675.21875 226.945312 676.546875 216.269531 677.753906 205.582031 C 678.957031 194.890625 680.066406 184.1875 680.953125 173.46875 L 680.953125 173.464844 C 680.96875 173.289062 681.125 173.15625 681.300781 173.171875 C 681.480469 173.1875 681.613281 173.339844 681.597656 173.519531 Z M 681.597656 173.519531 "/>
<path style=" stroke:none;fill-rule:nonzero;fill:rgb(74.509805%,76.47059%,81.176472%);fill-opacity:1;" d="M 799.476562 208.933594 C 799.417969 205.601562 794.933594 204.558594 793.425781 207.53125 C 778.890625 236.253906 738.40625 310.378906 691.878906 344.75 C 616.121094 400.710938 552.757812 503.410156 581.269531 568.765625 C 581.269531 568.765625 805.558594 571.808594 799.476562 208.933594 Z M 799.476562 208.933594 "/>
<path style=" stroke:none;fill-rule:nonzero;fill:rgb(64.313728%,66.274512%,70.588237%);fill-opacity:1;" d="M 784.53125 251.074219 C 784.46875 251.316406 784.394531 251.527344 784.328125 251.738281 L 784.109375 252.371094 L 783.652344 253.628906 L 782.722656 256.128906 C 782.09375 257.792969 781.449219 259.453125 780.796875 261.109375 C 779.496094 264.421875 778.171875 267.71875 776.820312 271.011719 C 774.113281 277.589844 771.324219 284.136719 768.472656 290.65625 C 762.757812 303.6875 756.734375 316.585938 750.496094 329.375 C 744.261719 342.167969 737.730469 354.816406 730.949219 367.324219 C 727.5625 373.585938 724.089844 379.796875 720.5625 385.976562 C 717.039062 392.15625 713.4375 398.296875 709.757812 404.386719 C 706.082031 410.480469 702.339844 416.535156 698.484375 422.515625 C 694.640625 428.503906 690.730469 434.453125 686.710938 440.324219 C 682.695312 446.199219 678.613281 452.03125 674.40625 457.769531 C 670.199219 463.511719 665.9375 469.214844 661.515625 474.789062 C 657.097656 480.371094 652.609375 485.894531 647.964844 491.285156 C 643.320312 496.679688 638.601562 502.007812 633.707031 507.175781 C 632.503906 508.484375 631.253906 509.75 630.015625 511.03125 C 628.777344 512.304688 627.546875 513.589844 626.277344 514.835938 L 622.492188 518.597656 L 618.644531 522.292969 C 613.472656 527.179688 608.167969 531.925781 602.710938 536.492188 C 602.632812 536.5625 602.511719 536.550781 602.445312 536.46875 C 602.378906 536.390625 602.390625 536.269531 602.46875 536.203125 C 607.871094 531.585938 613.121094 526.796875 618.234375 521.867188 C 623.355469 516.941406 628.285156 511.824219 633.132812 506.632812 C 637.992188 501.453125 642.671875 496.105469 647.273438 490.695312 C 651.882812 485.289062 656.332031 479.75 660.710938 474.15625 C 678.214844 451.765625 694.050781 428.101562 708.773438 403.789062 C 712.457031 397.710938 716.0625 391.585938 719.59375 385.417969 C 723.125 379.25 726.605469 373.050781 729.996094 366.804688 C 733.394531 360.5625 736.726562 354.285156 739.996094 347.972656 C 743.269531 341.664062 746.488281 335.324219 749.636719 328.949219 C 755.941406 316.207031 761.992188 303.335938 767.796875 290.355469 C 770.699219 283.867188 773.542969 277.347656 776.300781 270.792969 C 777.675781 267.515625 779.03125 264.230469 780.359375 260.933594 C 781.027344 259.285156 781.679688 257.632812 782.324219 255.976562 L 783.277344 253.488281 L 783.734375 252.238281 C 783.886719 251.828125 784.050781 251.386719 784.15625 251.003906 L 784.164062 250.976562 C 784.191406 250.875 784.296875 250.816406 784.394531 250.84375 C 784.5 250.871094 784.558594 250.976562 784.53125 251.074219 Z M 784.53125 251.074219 "/>
<path style=" stroke:none;fill-rule:nonzero;fill:rgb(86.274511%,86.666667%,87.450981%);fill-opacity:1;" d="M 597.222656 556.242188 C 597.222656 556.242188 608.132812 511.390625 663.542969 475.824219 C 714.953125 442.828125 839.96875 367.839844 875.78125 318.910156 C 877.371094 316.742188 880.769531 318.242188 880.222656 320.871094 C 874.28125 349.074219 853.859375 418.546875 789.78125 477.898438 C 707.140625 554.441406 597.222656 556.242188 597.222656 556.242188 Z M 597.222656 556.242188 "/>
<path style=" stroke:none;fill-rule:nonzero;fill:rgb(74.509805%,76.47059%,81.176472%);fill-opacity:1;" d="M 848.21875 365.644531 C 846.007812 371.621094 843.03125 377.285156 839.828125 382.785156 C 838.230469 385.542969 836.511719 388.222656 834.773438 390.894531 C 832.996094 393.539062 831.1875 396.164062 829.273438 398.71875 C 821.675781 408.949219 813.164062 418.503906 803.976562 427.335938 C 801.703125 429.578125 799.3125 431.6875 796.972656 433.84375 C 794.558594 435.925781 792.1875 438.058594 789.703125 440.0625 C 784.828125 444.164062 779.746094 448.019531 774.613281 451.796875 L 768.765625 455.945312 L 766.785156 457.28125 L 762.816406 459.949219 C 761.488281 460.832031 760.140625 461.671875 758.796875 462.535156 C 757.453125 463.386719 756.121094 464.261719 754.761719 465.09375 L 750.699219 467.585938 C 747.984375 469.257812 745.253906 470.882812 742.53125 472.53125 C 720.710938 485.632812 698.484375 498.039062 676.054688 510.035156 C 664.867188 516.074219 653.652344 522.066406 642.675781 528.464844 C 637.195312 531.675781 631.773438 534.988281 626.558594 538.609375 C 623.953125 540.417969 621.410156 542.3125 618.929688 544.292969 C 616.46875 546.292969 614.085938 548.390625 611.832031 550.625 L 611.832031 550.628906 C 611.757812 550.703125 611.636719 550.699219 611.5625 550.625 C 611.488281 550.550781 611.488281 550.433594 611.5625 550.359375 C 613.785156 548.074219 616.144531 545.921875 618.582031 543.871094 C 621.042969 541.839844 623.578125 539.910156 626.171875 538.058594 C 631.363281 534.359375 636.757812 530.964844 642.210938 527.679688 C 647.664062 524.394531 653.210938 521.277344 658.765625 518.175781 C 664.324219 515.078125 669.902344 512.027344 675.476562 508.96875 L 692.183594 499.769531 C 697.75 496.699219 703.308594 493.613281 708.84375 490.488281 C 719.910156 484.238281 730.902344 477.851562 741.785156 471.289062 C 744.5 469.640625 747.226562 468.007812 749.929688 466.335938 L 753.988281 463.839844 C 755.339844 463.007812 756.675781 462.148438 758.015625 461.304688 C 759.351562 460.453125 760.710938 459.621094 762.03125 458.75 L 765.988281 456.109375 L 767.96875 454.789062 L 769.921875 453.421875 L 773.8125 450.683594 C 778.933594 446.945312 784.011719 443.132812 788.886719 439.070312 C 791.363281 437.085938 793.734375 434.972656 796.148438 432.914062 C 798.496094 430.78125 800.871094 428.675781 803.160156 426.476562 C 812.40625 417.789062 820.988281 408.371094 828.675781 398.261719 C 829.648438 397.011719 830.566406 395.710938 831.515625 394.441406 C 832.453125 393.160156 833.347656 391.847656 834.269531 390.554688 C 836.046875 387.925781 837.808594 385.28125 839.453125 382.5625 C 841.101562 379.847656 842.683594 377.089844 844.15625 374.273438 C 844.890625 372.863281 845.609375 371.445312 846.285156 370.003906 C 846.960938 368.570312 847.613281 367.117188 848.175781 365.632812 C 848.183594 365.617188 848.199219 365.613281 848.203125 365.617188 C 848.21875 365.617188 848.226562 365.632812 848.21875 365.644531 Z M 848.21875 365.644531 "/>
<path style=" stroke:none;fill-rule:nonzero;fill:rgb(86.274511%,86.666667%,87.450981%);fill-opacity:1;" d="M 247.460938 443.324219 C 231.023438 411.417969 231.46875 373.132812 239.519531 338.148438 C 247.570312 303.164062 262.636719 270.269531 274.621094 236.433594 C 285.242188 206.4375 293.535156 174.734375 291.960938 143.132812 C 291.839844 140.765625 295.0625 139.957031 296.066406 142.105469 C 315.84375 184.414062 334.710938 227.855469 339.109375 274.214844 C 343.890625 324.636719 328.238281 380.046875 287.304688 409.804688 C 279.796875 415.261719 271.421875 419.933594 265.875 427.378906 C 258.964844 436.660156 257.492188 449.121094 259.355469 460.550781 C 261.21875 471.980469 266.082031 482.667969 270.894531 493.195312 Z M 247.460938 443.324219 "/>
<path style=" stroke:none;fill-rule:nonzero;fill:rgb(46.666667%,58.823532%,40.392157%);fill-opacity:1;" d="M 537.296875 590.410156 C 521.0625 590.410156 508.128906 585.664062 498.851562 576.304688 C 493.035156 570.4375 489.035156 563.148438 486.945312 554.621094 C 474.746094 552.921875 465.648438 548.324219 459.886719 540.945312 C 454.121094 548.324219 445.023438 552.921875 432.824219 554.621094 C 430.734375 563.148438 426.734375 570.4375 420.917969 576.304688 C 411.640625 585.664062 398.707031 590.410156 382.472656 590.410156 C 380.878906 590.410156 379.230469 590.363281 377.585938 590.273438 C 360.378906 589.320312 343.195312 585.835938 329.207031 580.453125 C 312.90625 574.183594 301.652344 565.597656 296.664062 555.628906 C 295.839844 553.976562 295.171875 552.277344 294.683594 550.574219 C 293.59375 546.785156 291.230469 543.4375 288.023438 541.148438 L 287.945312 541.089844 C 274.957031 531.773438 265.609375 516.492188 260.175781 495.671875 C 251.304688 461.699219 252.265625 430.34375 262.75 411.804688 C 265.265625 407.351562 266.28125 402.347656 265.683594 397.34375 C 264.632812 388.539062 264.472656 379.769531 265.207031 371.277344 C 266.28125 358.832031 269.269531 347.136719 274.078125 336.519531 C 278.878906 325.917969 285.523438 316.335938 293.828125 308.027344 C 298.449219 303.40625 300.949219 296.847656 300.691406 290.035156 C 300.542969 286.132812 300.71875 282.203125 301.214844 278.351562 C 303.234375 262.640625 311.730469 240.0625 340.695312 221.488281 C 343.800781 212.152344 352.574219 195.152344 376.882812 181.847656 C 395.285156 171.777344 412.816406 169.394531 426.25 175.140625 C 431.597656 177.425781 436.164062 181.003906 439.496094 185.511719 C 443.65625 186.375 447.460938 188.105469 450.8125 190.660156 C 452.945312 192.28125 454.875 194.226562 456.554688 196.441406 C 457.355469 197.496094 458.566406 198.101562 459.882812 198.101562 C 461.203125 198.101562 462.414062 197.496094 463.214844 196.441406 C 464.890625 194.226562 466.824219 192.28125 468.953125 190.660156 C 472.308594 188.101562 476.113281 186.375 480.273438 185.511719 C 483.605469 181.003906 488.167969 177.425781 493.519531 175.140625 C 506.953125 169.394531 524.484375 171.777344 542.886719 181.847656 C 567.195312 195.152344 575.96875 212.152344 579.074219 221.488281 C 608.039062 240.0625 616.535156 262.640625 618.554688 278.351562 C 619.320312 284.308594 619.320312 290.367188 618.554688 296.363281 C 618.203125 299.109375 619.253906 301.859375 621.363281 303.726562 C 631.050781 312.285156 638.789062 322.378906 644.371094 333.726562 C 649.960938 345.09375 653.390625 357.726562 654.5625 371.28125 C 655.292969 379.699219 655.140625 388.402344 654.109375 397.140625 C 653.507812 402.253906 654.550781 407.386719 657.125 411.988281 C 667.507812 430.546875 668.429688 461.832031 659.59375 495.671875 C 654.160156 516.492188 644.8125 531.777344 631.816406 541.097656 L 631.734375 541.15625 C 628.539062 543.441406 626.175781 546.785156 625.085938 550.574219 C 624.597656 552.277344 623.929688 553.976562 623.105469 555.628906 C 618.117188 565.597656 606.863281 574.183594 590.558594 580.453125 C 576.570312 585.835938 559.390625 589.320312 542.183594 590.273438 C 540.539062 590.363281 538.894531 590.410156 537.296875 590.410156 Z M 459.886719 536.269531 C 460.460938 536.269531 461 536.5625 461.316406 537.046875 C 461.632812 537.523438 461.902344 537.921875 462.191406 538.316406 C 467.527344 545.492188 476.398438 549.886719 488.550781 551.371094 C 489.273438 551.457031 489.859375 551.992188 490.019531 552.703125 C 491.878906 561.089844 495.667969 568.21875 501.285156 573.886719 C 509.894531 582.574219 522.011719 586.976562 537.296875 586.976562 C 538.832031 586.976562 540.410156 586.933594 541.996094 586.847656 C 573.558594 585.101562 609.929688 574.296875 620.042969 554.089844 C 620.773438 552.628906 621.363281 551.125 621.792969 549.625 C 623.09375 545.097656 625.921875 541.09375 629.753906 538.351562 L 629.796875 538.324219 C 642.148438 529.464844 651.050781 514.828125 656.28125 494.804688 C 664.894531 461.800781 664.09375 431.46875 654.132812 413.664062 C 651.203125 408.425781 650.019531 402.574219 650.707031 396.738281 C 651.710938 388.230469 651.859375 379.765625 651.148438 371.574219 C 648.882812 345.402344 637.800781 322.828125 619.097656 306.296875 C 616.132812 303.679688 614.660156 299.800781 615.152344 295.925781 C 615.882812 290.21875 615.882812 284.453125 615.15625 278.789062 C 613.21875 263.710938 604.976562 241.976562 576.71875 224.054688 C 576.378906 223.839844 576.125 223.511719 576 223.128906 C 573.230469 214.421875 565.03125 197.875 541.242188 184.859375 C 523.78125 175.304688 507.3125 172.972656 494.867188 178.296875 C 489.882812 180.425781 485.660156 183.800781 482.664062 188.054688 C 482.40625 188.421875 482.015625 188.671875 481.574219 188.753906 C 477.683594 189.464844 474.136719 191.023438 471.03125 193.386719 C 469.148438 194.824219 467.4375 196.546875 465.945312 198.515625 C 464.492188 200.433594 462.285156 201.53125 459.886719 201.53125 C 457.488281 201.53125 455.277344 200.433594 453.824219 198.515625 C 452.332031 196.546875 450.621094 194.824219 448.738281 193.390625 C 445.636719 191.023438 442.089844 189.464844 438.195312 188.753906 C 437.753906 188.671875 437.363281 188.421875 437.105469 188.054688 C 434.109375 183.800781 429.890625 180.429688 424.902344 178.296875 C 412.457031 172.972656 395.988281 175.304688 378.527344 184.859375 C 354.742188 197.875 346.542969 214.421875 343.769531 223.128906 C 343.648438 223.511719 343.394531 223.839844 343.054688 224.054688 C 314.796875 241.976562 306.554688 263.714844 304.613281 278.789062 C 304.144531 282.453125 303.976562 286.191406 304.117188 289.902344 C 304.414062 297.667969 301.546875 305.160156 296.25 310.457031 C 280.023438 326.691406 270.726562 347.253906 268.621094 371.574219 C 267.90625 379.832031 268.0625 388.363281 269.085938 396.9375 C 269.773438 402.671875 268.613281 408.398438 265.730469 413.496094 C 255.679688 431.277344 254.839844 461.671875 263.492188 494.804688 C 268.71875 514.828125 277.621094 529.464844 289.953125 538.308594 L 290.015625 538.351562 C 293.847656 541.09375 296.675781 545.09375 297.976562 549.625 C 298.410156 551.125 299 552.628906 299.730469 554.089844 C 309.839844 574.296875 346.214844 585.101562 377.777344 586.847656 C 379.359375 586.933594 380.941406 586.976562 382.472656 586.976562 C 397.761719 586.976562 409.878906 582.574219 418.484375 573.886719 C 424.101562 568.21875 427.894531 561.089844 429.753906 552.703125 C 429.910156 551.992188 430.496094 551.460938 431.21875 551.371094 C 443.375 549.886719 452.242188 545.492188 457.578125 538.316406 C 457.871094 537.921875 458.140625 537.523438 458.453125 537.046875 C 458.769531 536.5625 459.308594 536.269531 459.886719 536.269531 Z M 459.886719 536.269531 "/>
<path style=" stroke:none;fill-rule:nonzero;fill:rgb(31.37255%,43.137255%,24.705882%);fill-opacity:1;" d="M 451.589844 230.878906 L 451.589844 517.949219 C 451.589844 517.949219 458.960938 541.714844 420.304688 541.332031 C 420.304688 541.332031 422.660156 578.707031 378.359375 576.257812 C 334.0625 573.808594 297.578125 554.503906 310.210938 535.488281 C 310.210938 535.488281 284.796875 534.472656 273.742188 492.121094 C 262.683594 449.773438 269.484375 417.625 282.492188 410.699219 C 282.492188 410.699219 261.796875 343.601562 318.027344 306.332031 C 318.027344 306.332031 298.660156 261.773438 352.871094 230.507812 C 352.871094 230.507812 355.132812 209.746094 383.609375 194.164062 C 410.363281 179.523438 427.535156 186.972656 430.84375 199.265625 C 430.84375 199.265625 451.589844 193.519531 451.589844 230.878906 Z M 451.589844 230.878906 "/>
<path style=" stroke:none;fill-rule:nonzero;fill:rgb(31.37255%,43.137255%,24.705882%);fill-opacity:1;" d="M 468.179688 230.878906 L 468.179688 517.949219 C 468.179688 517.949219 460.808594 541.714844 499.46875 541.332031 C 499.46875 541.332031 497.113281 578.707031 541.410156 576.257812 C 585.710938 573.808594 622.191406 554.503906 609.5625 535.488281 C 609.5625 535.488281 634.972656 534.472656 646.03125 492.121094 C 657.085938 449.773438 650.285156 417.625 637.277344 410.699219 C 637.277344 410.699219 657.972656 343.601562 601.738281 306.332031 C 601.738281 306.332031 621.109375 261.773438 566.898438 230.507812 C 566.898438 230.507812 564.632812 209.746094 536.160156 194.164062 C 509.40625 179.523438 492.234375 186.972656 488.925781 199.265625 C 488.925781 199.265625 468.179688 193.519531 468.179688 230.878906 Z M 468.179688 230.878906 "/>
<path style=" stroke:none;fill-rule:nonzero;fill:rgb(46.666667%,58.823532%,40.392157%);fill-opacity:1;" d="M 557.710938 448.246094 C 550.1875 448.25 540.394531 444.0625 528.332031 430.660156 C 515.085938 415.949219 503.210938 409.40625 493.035156 411.21875 C 481.117188 413.339844 475.691406 426.558594 475.636719 426.691406 C 475.480469 427.082031 475.039062 427.273438 474.644531 427.117188 C 474.253906 426.960938 474.066406 426.515625 474.222656 426.125 C 474.453125 425.550781 480.003906 411.996094 492.757812 409.71875 C 503.488281 407.804688 515.839844 414.503906 529.464844 429.640625 C 547.4375 449.605469 559.9375 448.46875 567.253906 443.996094 C 578.128906 437.355469 582.855469 420.460938 580.875 414.125 C 578.621094 413.457031 567.894531 409.738281 563.484375 398.339844 C 558.6875 385.941406 563.144531 369.246094 576.726562 348.722656 C 576.953125 348.378906 577.414062 348.277344 577.761719 348.492188 C 577.828125 348.535156 584.351562 352.609375 590.890625 359.074219 C 596.96875 365.082031 604.316406 374.449219 604.808594 384.964844 C 605.25 394.402344 600.199219 403.183594 589.804688 411.066406 C 589.636719 411.191406 589.429688 411.242188 589.226562 411.210938 C 589.023438 411.179688 588.839844 411.066406 588.722656 410.898438 C 588.59375 410.714844 575.992188 392.535156 580.070312 373.472656 C 580.15625 373.058594 580.5625 372.796875 580.976562 372.886719 C 581.386719 372.972656 581.648438 373.378906 581.558594 373.789062 C 578.050781 390.191406 587.359375 405.972656 589.527344 409.355469 C 599.0625 401.925781 603.691406 393.746094 603.285156 385.035156 C 602.46875 367.488281 581.488281 352.785156 577.582031 350.195312 C 564.613281 369.992188 560.347656 386.003906 564.90625 397.789062 C 569.460938 409.5625 581.53125 412.726562 581.652344 412.757812 C 581.894531 412.816406 582.089844 412.992188 582.179688 413.226562 C 583.46875 416.640625 582.789062 422.859375 580.4375 429.066406 C 578.847656 433.273438 575.121094 440.980469 568.046875 445.300781 C 565.285156 446.988281 561.835938 448.246094 557.710938 448.246094 Z M 557.710938 448.246094 "/>
<path style=" stroke:none;fill-rule:nonzero;fill:rgb(46.666667%,58.823532%,40.392157%);fill-opacity:1;" d="M 555.230469 557.539062 C 555.140625 557.539062 555.046875 557.523438 554.953125 557.488281 C 554.605469 557.351562 554.410156 556.980469 554.488281 556.617188 C 554.503906 556.53125 555.921875 546.710938 528.449219 526.75 C 519.980469 520.59375 515.617188 513.664062 515.488281 506.15625 C 515.304688 495.621094 523.429688 487.078125 526.90625 483.910156 C 523.613281 483.742188 516.742188 483.082031 509.734375 480.519531 C 496.996094 475.855469 490.101562 467.074219 489.800781 455.132812 C 489.570312 445.929688 491.964844 439.019531 496.910156 434.585938 C 504.238281 428.027344 514.402344 429.335938 514.828125 429.394531 C 515.246094 429.453125 515.539062 429.835938 515.480469 430.253906 C 515.425781 430.671875 515.042969 430.964844 514.621094 430.90625 C 514.523438 430.894531 504.707031 429.644531 497.917969 435.734375 C 493.324219 439.851562 491.109375 446.367188 491.324219 455.09375 C 491.613281 466.507812 497.96875 474.574219 510.222656 479.074219 C 519.480469 482.46875 528.796875 482.449219 528.890625 482.445312 C 528.894531 482.445312 528.894531 482.445312 528.898438 482.445312 C 529.222656 482.445312 529.511719 482.648438 529.617188 482.953125 C 529.726562 483.261719 529.625 483.605469 529.367188 483.808594 C 529.242188 483.90625 516.792969 493.792969 517.011719 506.136719 C 517.136719 513.140625 521.285156 519.660156 529.347656 525.515625 C 549.84375 540.410156 554.683594 549.898438 555.75 554.222656 C 559.261719 547.386719 569.09375 525.667969 562.90625 507.164062 C 559.628906 497.367188 552.34375 489.84375 541.222656 484.785156 C 545.261719 492.375 559.109375 519.746094 556.695312 533.960938 C 556.625 534.375 556.230469 534.65625 555.816406 534.585938 C 555.402344 534.515625 555.121094 534.121094 555.191406 533.707031 C 557.863281 517.976562 539.027344 483.917969 538.835938 483.578125 C 538.679688 483.292969 538.714844 482.941406 538.933594 482.699219 C 539.148438 482.457031 539.492188 482.375 539.792969 482.5 C 552.472656 487.730469 560.738281 495.867188 564.351562 506.6875 C 568.347656 518.644531 565.828125 531.742188 563.011719 540.621094 C 559.96875 550.210938 555.929688 557.097656 555.886719 557.167969 C 555.746094 557.402344 555.496094 557.539062 555.230469 557.539062 Z M 555.230469 557.539062 "/>
<path style=" stroke:none;fill-rule:nonzero;fill:rgb(46.666667%,58.823532%,40.392157%);fill-opacity:1;" d="M 618.476562 521.570312 C 618.375 521.570312 618.269531 521.550781 618.167969 521.503906 C 617.839844 521.355469 617.65625 520.996094 617.734375 520.640625 C 617.753906 520.554688 619.472656 511.378906 603.636719 500.339844 C 597.792969 496.265625 594.78125 491.960938 594.691406 487.546875 C 594.617188 483.921875 596.53125 481.140625 597.945312 479.585938 C 589.476562 479.335938 582.546875 474.855469 577.820312 466.542969 C 574.023438 459.859375 572.996094 453.164062 572.953125 452.882812 C 572.894531 452.464844 573.179688 452.078125 573.597656 452.015625 C 574.007812 451.953125 574.398438 452.242188 574.460938 452.660156 C 574.472656 452.726562 575.496094 459.390625 579.167969 465.824219 C 584.019531 474.335938 590.976562 478.445312 599.839844 478.046875 C 600.175781 478.035156 600.476562 478.234375 600.589844 478.546875 C 600.707031 478.863281 600.601562 479.210938 600.335938 479.414062 C 600.292969 479.445312 596.109375 482.707031 596.214844 487.527344 C 596.300781 491.421875 599.089844 495.3125 604.507812 499.089844 C 616.199219 507.238281 618.785156 514.464844 619.246094 518.230469 C 622.421875 513.074219 629.613281 499.597656 625.46875 489.175781 C 623.160156 483.375 617.648438 479.316406 609.066406 477.085938 C 612.980469 480.589844 619.777344 488.371094 619.242188 499.75 C 619.21875 500.171875 618.859375 500.488281 618.441406 500.476562 C 618.023438 500.457031 617.699219 500.097656 617.71875 499.679688 C 618.425781 484.71875 605.714844 476.339844 605.585938 476.257812 C 605.277344 476.058594 605.15625 475.671875 605.292969 475.332031 C 605.429688 474.992188 605.78125 474.796875 606.140625 474.867188 C 617.117188 476.976562 624.097656 481.601562 626.882812 488.613281 C 632.398438 502.484375 619.644531 520.492188 619.097656 521.253906 C 618.949219 521.457031 618.71875 521.570312 618.476562 521.570312 Z M 618.476562 521.570312 "/>
<path style=" stroke:none;fill-rule:nonzero;fill:rgb(46.666667%,58.823532%,40.392157%);fill-opacity:1;" d="M 512.484375 388.652344 C 498.90625 388.65625 484.425781 378.144531 483.714844 377.621094 C 483.441406 377.417969 483.332031 377.054688 483.457031 376.734375 C 483.878906 375.632812 493.996094 349.726562 511.054688 347.082031 C 526.46875 344.695312 531.042969 358.0625 531.894531 361.191406 C 540.054688 360.707031 547.773438 355.714844 552.640625 347.734375 C 556.238281 341.839844 557.355469 335.480469 555.492188 331.539062 C 553.054688 326.386719 549.835938 323.230469 545.65625 321.890625 C 540.566406 320.257812 534.03125 321.214844 525.6875 324.820312 C 515.746094 329.113281 506.230469 328.953125 499.582031 324.386719 C 494.777344 321.085938 489.179688 313.910156 489.789062 298.476562 C 490.34375 284.363281 497.847656 276.691406 504.042969 272.738281 C 510.730469 268.472656 517.191406 267.546875 517.464844 267.511719 C 517.878906 267.453125 518.265625 267.746094 518.320312 268.164062 C 518.378906 268.582031 518.089844 268.964844 517.671875 269.023438 C 517.605469 269.03125 511.222656 269.953125 504.8125 274.054688 C 496.277344 279.519531 491.734375 287.757812 491.308594 298.535156 C 490.847656 310.199219 494.007812 318.703125 500.445312 323.128906 C 506.652344 327.394531 515.632812 327.5 525.082031 323.417969 C 541.085938 316.507812 551.183594 318.878906 556.867188 330.882812 C 558.980469 335.347656 557.859375 342.109375 553.941406 348.53125 C 548.679688 357.148438 540.230469 362.460938 531.328125 362.742188 C 531.324219 362.742188 531.3125 362.742188 531.304688 362.742188 C 530.945312 362.742188 530.632812 362.484375 530.558594 362.128906 C 530.429688 361.472656 527.167969 346.125 511.289062 348.589844 C 496.414062 350.898438 486.667969 372.949219 485.101562 376.734375 C 488.214844 378.890625 505.757812 390.421875 518.796875 386.1875 C 524.449219 384.355469 528.570312 379.75 531.054688 372.503906 C 528.128906 371.578125 516.101562 368.472656 501.265625 374.339844 C 500.875 374.496094 500.429688 374.304688 500.277344 373.910156 C 500.121094 373.519531 500.316406 373.078125 500.707031 372.921875 C 518.3125 365.957031 531.734375 371.09375 532.296875 371.316406 C 532.671875 371.464844 532.867188 371.878906 532.742188 372.257812 C 530.128906 380.414062 525.589844 385.585938 519.261719 387.640625 C 517.078125 388.347656 514.792969 388.652344 512.484375 388.652344 Z M 512.484375 388.652344 "/>
<path style=" stroke:none;fill-rule:nonzero;fill:rgb(46.666667%,58.823532%,40.392157%);fill-opacity:1;" d="M 543.152344 306.335938 C 542.835938 306.335938 542.542969 306.140625 542.433594 305.828125 C 542.3125 305.488281 539.535156 297.421875 543.761719 291.28125 C 546.621094 287.132812 551.941406 284.9375 559.582031 284.761719 C 566.769531 284.597656 571.253906 281.183594 571.886719 275.402344 C 572.90625 266.117188 563.203125 250.535156 542.347656 245.257812 C 541.140625 246.074219 536.398438 249.167969 530.496094 251.285156 C 521.453125 254.53125 514.101562 253.828125 509.230469 249.257812 C 497.796875 238.527344 493.539062 209.257812 493.363281 208.015625 C 493.332031 207.8125 493.390625 207.601562 493.515625 207.4375 C 493.644531 207.273438 493.835938 207.171875 494.039062 207.148438 C 495.539062 207 530.875 203.664062 544.117188 218.730469 C 548.6875 223.929688 550.046875 230.71875 548.15625 238.910156 C 548.09375 239.195312 547.875 239.414062 547.59375 239.484375 C 547.316406 239.550781 547.019531 239.453125 546.832031 239.230469 C 546.601562 238.957031 523.582031 211.855469 510.742188 216.980469 C 510.351562 217.136719 509.910156 216.945312 509.753906 216.554688 C 509.597656 216.164062 509.789062 215.71875 510.179688 215.5625 C 522.5625 210.621094 542.25 231.71875 546.980469 237.078125 C 548.269531 230.058594 546.921875 224.234375 542.972656 219.742188 C 531.3125 206.46875 500.378906 208.191406 494.992188 208.601562 C 495.769531 213.425781 500.25 238.738281 510.273438 248.144531 C 521.0625 258.273438 541.550781 243.957031 541.757812 243.808594 C 541.9375 243.683594 542.164062 243.640625 542.378906 243.691406 C 551.898438 246.039062 560.332031 250.921875 566.132812 257.433594 C 571.292969 263.234375 574.011719 270.011719 573.402344 275.570312 C 572.675781 282.195312 567.648438 286.101562 559.613281 286.285156 C 552.492188 286.453125 547.582031 288.421875 545.015625 292.144531 C 541.222656 297.652344 543.839844 305.242188 543.867188 305.320312 C 544.007812 305.714844 543.800781 306.152344 543.40625 306.292969 C 543.320312 306.324219 543.234375 306.335938 543.152344 306.335938 Z M 543.152344 306.335938 "/>
<path style=" stroke:none;fill-rule:nonzero;fill:rgb(46.666667%,58.823532%,40.392157%);fill-opacity:1;" d="M 590.054688 332.492188 C 589.953125 332.492188 589.855469 332.472656 589.757812 332.429688 C 589.371094 332.265625 589.1875 331.820312 589.351562 331.433594 C 592.910156 322.980469 593.144531 316.53125 590.039062 312.253906 C 585.039062 305.367188 572.914062 306.324219 572.792969 306.332031 C 572.363281 306.367188 572.003906 306.058594 571.96875 305.640625 C 571.929688 305.21875 572.242188 304.847656 572.660156 304.8125 C 573.195312 304.769531 585.773438 303.78125 591.273438 311.359375 C 594.710938 316.09375 594.535156 323.050781 590.753906 332.027344 C 590.632812 332.316406 590.351562 332.492188 590.054688 332.492188 Z M 590.054688 332.492188 "/>
<path style=" stroke:none;fill-rule:nonzero;fill:rgb(46.666667%,58.823532%,40.392157%);fill-opacity:1;" d="M 357.769531 448.246094 C 353.640625 448.246094 350.199219 446.988281 347.433594 445.300781 C 340.359375 440.980469 336.632812 433.273438 335.039062 429.066406 C 332.691406 422.859375 332.011719 416.640625 333.304688 413.226562 C 333.390625 412.992188 333.585938 412.820312 333.828125 412.757812 C 333.949219 412.726562 346.042969 409.535156 350.582031 397.769531 C 355.128906 385.988281 350.859375 369.980469 337.898438 350.195312 C 333.992188 352.785156 313.011719 367.503906 312.195312 385.039062 C 311.789062 393.75 316.417969 401.929688 325.953125 409.355469 C 328.121094 405.972656 337.425781 390.179688 333.921875 373.792969 C 333.832031 373.378906 334.09375 372.972656 334.507812 372.886719 C 334.917969 372.796875 335.324219 373.058594 335.410156 373.472656 C 339.488281 392.535156 326.886719 410.71875 326.761719 410.898438 C 326.640625 411.066406 326.457031 411.179688 326.253906 411.214844 C 326.050781 411.242188 325.84375 411.191406 325.679688 411.066406 C 315.28125 403.183594 310.230469 394.402344 310.671875 384.964844 C 311.164062 374.453125 318.511719 365.082031 324.589844 359.074219 C 331.128906 352.609375 337.652344 348.535156 337.714844 348.496094 C 338.066406 348.277344 338.527344 348.378906 338.753906 348.722656 C 352.335938 369.246094 356.789062 385.941406 351.992188 398.339844 C 347.585938 409.738281 336.859375 413.457031 334.605469 414.125 C 332.625 420.460938 337.351562 437.355469 348.226562 444 C 355.542969 448.46875 368.042969 449.605469 386.015625 429.640625 C 399.644531 414.503906 411.992188 407.804688 422.726562 409.71875 C 435.476562 411.996094 441.027344 425.550781 441.257812 426.125 C 441.414062 426.515625 441.226562 426.960938 440.835938 427.117188 C 440.441406 427.273438 440 427.085938 439.84375 426.695312 C 439.789062 426.5625 434.363281 413.339844 422.445312 411.21875 C 412.269531 409.414062 400.394531 415.949219 387.148438 430.664062 C 375.085938 444.058594 365.292969 448.246094 357.769531 448.246094 Z M 357.769531 448.246094 "/>
<path style=" stroke:none;fill-rule:nonzero;fill:rgb(46.666667%,58.823532%,40.392157%);fill-opacity:1;" d="M 360.25 557.539062 C 359.984375 557.539062 359.734375 557.402344 359.59375 557.164062 C 359.550781 557.097656 355.511719 550.210938 352.46875 540.621094 C 349.652344 531.738281 347.132812 518.640625 351.128906 506.683594 C 354.742188 495.867188 363.007812 487.730469 375.6875 482.5 C 375.988281 482.375 376.332031 482.457031 376.546875 482.699219 C 376.761719 482.941406 376.800781 483.292969 376.644531 483.578125 C 376.453125 483.917969 357.617188 517.980469 360.289062 533.703125 C 360.359375 534.121094 360.082031 534.515625 359.664062 534.585938 C 359.246094 534.65625 358.855469 534.375 358.785156 533.960938 C 356.371094 519.746094 370.21875 492.371094 374.257812 484.78125 C 363.140625 489.84375 355.851562 497.367188 352.574219 507.164062 C 346.386719 525.667969 356.21875 547.386719 359.734375 554.21875 C 360.796875 549.898438 365.636719 540.410156 386.132812 525.515625 C 394.195312 519.660156 398.34375 513.140625 398.46875 506.136719 C 398.691406 493.792969 386.238281 483.90625 386.113281 483.804688 C 385.855469 483.605469 385.753906 483.261719 385.863281 482.953125 C 385.96875 482.648438 386.257812 482.441406 386.582031 482.441406 C 386.585938 482.441406 386.585938 482.441406 386.609375 482.441406 C 387.117188 482.441406 396.214844 482.390625 405.257812 479.070312 C 417.511719 474.574219 423.867188 466.507812 424.15625 455.09375 C 424.375 446.359375 422.152344 439.84375 417.554688 435.722656 C 410.746094 429.628906 400.957031 430.890625 400.859375 430.90625 C 400.445312 430.964844 400.058594 430.671875 400 430.253906 C 399.941406 429.835938 400.234375 429.453125 400.652344 429.394531 C 401.078125 429.335938 411.242188 428.027344 418.570312 434.585938 C 423.515625 439.015625 425.910156 445.929688 425.675781 455.132812 C 425.378906 467.074219 418.484375 475.855469 405.746094 480.515625 C 398.738281 483.082031 391.867188 483.742188 388.574219 483.910156 C 392.050781 487.078125 400.175781 495.621094 399.992188 506.15625 C 399.863281 513.664062 395.5 520.59375 387.03125 526.75 C 359.285156 546.90625 360.972656 556.523438 360.992188 556.617188 C 361.070312 556.980469 360.875 557.351562 360.527344 557.484375 C 360.433594 557.523438 360.339844 557.539062 360.25 557.539062 Z M 360.25 557.539062 "/>
<path style=" stroke:none;fill-rule:nonzero;fill:rgb(46.666667%,58.823532%,40.392157%);fill-opacity:1;" d="M 297 521.570312 C 296.761719 521.570312 296.527344 521.457031 296.382812 521.253906 C 295.835938 520.492188 283.082031 502.484375 288.597656 488.613281 C 291.382812 481.601562 298.363281 476.976562 309.335938 474.867188 C 309.695312 474.796875 310.050781 474.992188 310.1875 475.332031 C 310.324219 475.671875 310.199219 476.058594 309.894531 476.257812 C 309.765625 476.339844 297.054688 484.746094 297.761719 499.679688 C 297.78125 500.097656 297.457031 500.457031 297.039062 500.476562 C 296.625 500.488281 296.257812 500.171875 296.242188 499.75 C 295.703125 488.371094 302.5 480.59375 306.414062 477.085938 C 297.828125 479.316406 292.320312 483.375 290.011719 489.179688 C 285.863281 499.609375 293.058594 513.082031 296.230469 518.234375 C 296.695312 514.464844 299.277344 507.238281 310.972656 499.089844 C 316.390625 495.3125 319.179688 491.421875 319.265625 487.527344 C 319.371094 482.707031 315.1875 479.445312 315.144531 479.414062 C 314.878906 479.210938 314.777344 478.859375 314.890625 478.546875 C 315.003906 478.234375 315.308594 478.039062 315.640625 478.046875 C 324.515625 478.445312 331.484375 474.324219 336.335938 465.789062 C 339.992188 459.351562 341.007812 452.726562 341.015625 452.660156 C 341.078125 452.242188 341.472656 451.957031 341.882812 452.015625 C 342.300781 452.078125 342.585938 452.464844 342.527344 452.882812 C 342.484375 453.164062 341.457031 459.863281 337.660156 466.542969 C 332.933594 474.855469 326.003906 479.332031 317.535156 479.585938 C 318.949219 481.140625 320.863281 483.921875 320.789062 487.546875 C 320.699219 491.960938 317.6875 496.265625 311.84375 500.339844 C 296.007812 511.378906 297.726562 520.554688 297.746094 520.648438 C 297.820312 521 297.636719 521.359375 297.308594 521.503906 C 297.207031 521.546875 297.101562 521.570312 297 521.570312 Z M 297 521.570312 "/>
<path style=" stroke:none;fill-rule:nonzero;fill:rgb(46.666667%,58.823532%,40.392157%);fill-opacity:1;" d="M 402.996094 388.652344 C 400.683594 388.652344 398.402344 388.351562 396.214844 387.640625 C 389.886719 385.585938 385.351562 380.414062 382.738281 372.261719 C 382.613281 371.878906 382.808594 371.464844 383.183594 371.316406 C 383.746094 371.09375 397.167969 365.957031 414.773438 372.921875 C 415.164062 373.078125 415.355469 373.519531 415.203125 373.910156 C 415.046875 374.304688 414.609375 374.496094 414.214844 374.339844 C 399.378906 368.472656 387.351562 371.578125 384.421875 372.503906 C 386.910156 379.75 391.03125 384.355469 396.683594 386.1875 C 409.722656 390.421875 427.261719 378.890625 430.378906 376.734375 C 428.8125 372.953125 419.058594 350.894531 404.191406 348.589844 C 397.515625 347.554688 392.25 349.507812 388.539062 354.390625 C 385.746094 358.070312 384.929688 362.089844 384.921875 362.128906 C 384.847656 362.484375 384.535156 362.742188 384.171875 362.742188 C 384.164062 362.742188 384.15625 362.742188 384.148438 362.742188 C 375.25 362.460938 366.796875 357.148438 361.539062 348.53125 C 357.621094 342.109375 356.5 335.347656 358.613281 330.882812 C 364.292969 318.878906 374.394531 316.507812 390.398438 323.417969 C 399.847656 327.5 408.824219 327.394531 415.035156 323.128906 C 421.472656 318.703125 424.628906 310.203125 424.171875 298.535156 C 423.746094 287.757812 419.203125 279.519531 410.664062 274.054688 C 404.257812 269.953125 397.871094 269.03125 397.808594 269.023438 C 397.390625 268.964844 397.101562 268.582031 397.15625 268.164062 C 397.214844 267.746094 397.597656 267.453125 398.015625 267.511719 C 398.285156 267.550781 404.75 268.472656 411.4375 272.738281 C 417.632812 276.691406 425.136719 284.363281 425.691406 298.476562 C 426.300781 313.910156 420.703125 321.085938 415.898438 324.386719 C 409.246094 328.953125 399.734375 329.113281 389.792969 324.820312 C 381.445312 321.214844 374.914062 320.257812 369.824219 321.890625 C 365.644531 323.230469 362.425781 326.386719 359.988281 331.539062 C 358.121094 335.480469 359.242188 341.839844 362.839844 347.734375 C 367.707031 355.714844 375.425781 360.707031 383.585938 361.191406 C 384.4375 358.0625 389.011719 344.691406 404.425781 347.082031 C 421.484375 349.730469 431.601562 375.632812 432.023438 376.734375 C 432.144531 377.054688 432.039062 377.417969 431.761719 377.621094 C 431.054688 378.144531 416.574219 388.652344 402.996094 388.652344 Z M 402.996094 388.652344 "/>
<path style=" stroke:none;fill-rule:nonzero;fill:rgb(46.666667%,58.823532%,40.392157%);fill-opacity:1;" d="M 372.328125 306.335938 C 372.246094 306.335938 372.160156 306.324219 372.074219 306.292969 C 371.679688 306.152344 371.472656 305.714844 371.609375 305.320312 C 371.636719 305.242188 374.25 297.632812 370.457031 292.136719 C 367.890625 288.421875 362.980469 286.453125 355.863281 286.285156 C 347.828125 286.101562 342.804688 282.195312 342.078125 275.570312 C 341.46875 270.011719 344.1875 263.234375 349.347656 257.433594 C 355.148438 250.917969 363.582031 246.039062 373.097656 243.691406 C 373.3125 243.636719 373.542969 243.679688 373.722656 243.808594 C 373.925781 243.957031 394.425781 258.265625 405.207031 248.144531 C 415.234375 238.734375 419.710938 213.425781 420.484375 208.601562 C 415.101562 208.191406 384.164062 206.476562 372.503906 219.742188 C 368.554688 224.234375 367.210938 230.058594 368.5 237.078125 C 373.230469 231.71875 392.914062 210.621094 405.300781 215.5625 C 405.691406 215.71875 405.882812 216.164062 405.726562 216.554688 C 405.570312 216.945312 405.125 217.136719 404.734375 216.980469 C 391.898438 211.855469 368.878906 238.957031 368.648438 239.230469 C 368.460938 239.453125 368.164062 239.550781 367.886719 239.484375 C 367.605469 239.414062 367.386719 239.195312 367.320312 238.910156 C 365.433594 230.71875 366.792969 223.929688 371.359375 218.730469 C 384.605469 203.664062 419.941406 207 421.4375 207.148438 C 421.644531 207.171875 421.835938 207.273438 421.960938 207.4375 C 422.089844 207.601562 422.148438 207.808594 422.117188 208.015625 C 421.941406 209.257812 417.683594 238.527344 406.25 249.257812 C 401.378906 253.828125 394.023438 254.53125 384.984375 251.285156 C 379.082031 249.167969 374.339844 246.074219 373.132812 245.253906 C 352.277344 250.535156 342.574219 266.117188 343.589844 275.402344 C 344.226562 281.183594 348.710938 284.597656 355.898438 284.761719 C 363.535156 284.9375 368.859375 287.132812 371.714844 291.28125 C 375.945312 297.421875 373.167969 305.488281 373.046875 305.828125 C 372.9375 306.140625 372.644531 306.335938 372.328125 306.335938 Z M 372.328125 306.335938 "/>
<path style=" stroke:none;fill-rule:nonzero;fill:rgb(46.666667%,58.823532%,40.392157%);fill-opacity:1;" d="M 325.425781 332.492188 C 325.128906 332.492188 324.847656 332.316406 324.726562 332.023438 C 320.941406 323.046875 320.769531 316.09375 324.207031 311.355469 C 329.707031 303.78125 342.285156 304.769531 342.820312 304.8125 C 343.238281 304.847656 343.546875 305.21875 343.511719 305.636719 C 343.476562 306.058594 343.105469 306.367188 342.6875 306.332031 C 342.566406 306.324219 330.429688 305.378906 325.4375 312.257812 C 322.335938 316.535156 322.570312 322.984375 326.128906 331.433594 C 326.292969 331.820312 326.109375 332.265625 325.722656 332.429688 C 325.625 332.472656 325.527344 332.492188 325.425781 332.492188 Z M 325.425781 332.492188 "/>
<path style=" stroke:none;fill-rule:nonzero;fill:rgb(71.372551%,30.980393%,16.862746%);fill-opacity:1;" d="M 594.296875 182.316406 C 594.152344 181.886719 593.519531 182.023438 593.558594 182.476562 C 594.953125 198.683594 591.09375 214.996094 586.820312 230.757812 C 582.238281 247.683594 577.101562 264.78125 577.371094 282.3125 C 577.617188 298.300781 583.175781 315.050781 595.152344 325.332031 C 597.050781 326.960938 599.949219 326.539062 601.25 324.398438 C 606.769531 315.296875 619.457031 290.234375 615.796875 256.890625 C 612.988281 231.28125 602.550781 206.792969 594.296875 182.316406 Z M 594.296875 182.316406 "/>
<path style=" stroke:none;fill-rule:nonzero;fill:rgb(81.176472%,49.019608%,38.039216%);fill-opacity:1;" d="M 598.582031 228.542969 C 598.582031 228.542969 609.207031 275.027344 596.90625 321.273438 C 596.90625 321.273438 603.789062 258.300781 598.582031 228.542969 Z M 598.582031 228.542969 "/>
<path style=" stroke:none;fill-rule:nonzero;fill:rgb(71.372551%,30.980393%,16.862746%);fill-opacity:1;" d="M 624.351562 347.851562 C 624.269531 349.035156 625.769531 349.617188 626.496094 348.675781 C 627.980469 346.746094 630.28125 343.65625 633.707031 338.828125 C 642.84375 325.960938 655.050781 315.632812 665.386719 303.707031 C 691.769531 273.253906 704.851562 233.851562 716.972656 195.335938 C 717.308594 194.261719 716.113281 193.359375 715.167969 193.972656 C 663.398438 227.519531 628.738281 286.269531 624.351562 347.851562 Z M 624.351562 347.851562 "/>
<path style=" stroke:none;fill-rule:nonzero;fill:rgb(80.784315%,49.019608%,38.039216%);fill-opacity:1;" d="M 626.769531 344.945312 C 628.074219 337.101562 649.5 265.460938 685.035156 234.023438 C 685.238281 233.847656 685.523438 234.109375 685.363281 234.320312 C 678.160156 243.859375 643.6875 291.59375 626.769531 344.945312 Z M 626.769531 344.945312 "/>
<path style=" stroke:none;fill-rule:nonzero;fill:rgb(71.372551%,30.980393%,16.862746%);fill-opacity:1;" d="M 674.742188 344.925781 C 632.824219 364.371094 620.160156 391.738281 616.515625 403.5625 C 616.105469 404.898438 617.695312 405.949219 618.746094 405.027344 C 625.421875 399.152344 636.199219 397.761719 645.492188 396.09375 C 689.171875 388.25 726.71875 353.441406 738.441406 310.6875 C 738.851562 309.195312 737.003906 308.117188 735.917969 309.214844 C 719.371094 325.941406 696.269531 334.941406 674.742188 344.925781 Z M 674.742188 344.925781 "/>
<path style=" stroke:none;fill-rule:nonzero;fill:rgb(80.784315%,49.019608%,38.039216%);fill-opacity:1;" d="M 618.480469 403.09375 C 618.480469 403.09375 641.246094 364.4375 677.476562 357.558594 C 713.707031 350.679688 721.757812 331.210938 721.757812 331.210938 C 721.757812 331.210938 712.996094 353.289062 676.039062 361.355469 C 639.085938 369.417969 618.480469 403.09375 618.480469 403.09375 Z M 618.480469 403.09375 "/>
<path style=" stroke:none;fill-rule:nonzero;fill:rgb(71.372551%,30.980393%,16.862746%);fill-opacity:1;" d="M 747.980469 206.671875 C 747.8125 204.640625 744.914062 204.503906 744.542969 206.507812 C 740.210938 229.714844 728.207031 251.695312 711.460938 268.25 C 690.8125 288.664062 663.277344 320.625 652.074219 333.800781 C 650.902344 335.179688 652.363281 337.222656 654.039062 336.535156 C 672.679688 328.921875 693.894531 327.28125 711.109375 316.71875 C 731.011719 304.507812 742.640625 281.808594 746.8125 258.816406 C 749.929688 241.644531 749.414062 224.125 747.980469 206.671875 Z M 747.980469 206.671875 "/>
<path style=" stroke:none;fill-rule:nonzero;fill:rgb(80.784315%,49.019608%,38.039216%);fill-opacity:1;" d="M 658.992188 331.695312 C 658.648438 331.863281 658.363281 331.375 658.679688 331.164062 C 672.34375 321.992188 719.785156 288.285156 735.679688 252.496094 C 735.679688 252.496094 717.839844 302.855469 658.992188 331.695312 Z M 658.992188 331.695312 "/>
<path style=" stroke:none;fill-rule:nonzero;fill:rgb(74.509805%,76.47059%,81.176472%);fill-opacity:1;" d="M 223.324219 297.367188 C 228.652344 257.570312 249.339844 222.121094 273.527344 189.570312 C 279.074219 182.109375 271.761719 171.910156 262.914062 174.75 C 231.761719 184.734375 201.777344 198.367188 173.785156 215.304688 C 153.046875 227.851562 131.808594 244.589844 127.460938 268.457031 C 122.925781 293.332031 138.59375 317.703125 157.617188 334.335938 C 176.636719 350.96875 199.550781 362.921875 217.386719 380.828125 C 240.550781 404.082031 253.222656 435.292969 264.175781 466.484375 C 264.824219 468.335938 267.566406 467.773438 267.441406 465.816406 C 267.425781 465.601562 267.371094 465.390625 267.277344 465.195312 C 241.710938 412.332031 215.527344 355.566406 223.324219 297.367188 Z M 223.324219 297.367188 "/>
<path style=" stroke:none;fill-rule:nonzero;fill:rgb(86.274511%,86.666667%,87.450981%);fill-opacity:1;" d="M 211.28125 363.523438 C 211.191406 363.523438 211.097656 363.488281 211.023438 363.421875 C 173.464844 329.496094 156.863281 297.585938 161.683594 268.582031 C 165.191406 247.480469 179.675781 232.011719 191.210938 222.75 C 203.695312 212.726562 215.511719 207.609375 215.632812 207.558594 C 215.828125 207.476562 216.050781 207.566406 216.132812 207.757812 C 216.214844 207.953125 216.125 208.175781 215.933594 208.257812 C 215.8125 208.308594 204.078125 213.394531 191.671875 223.359375 C 180.246094 232.535156 165.898438 247.855469 162.433594 268.710938 C 157.660156 297.441406 174.183594 329.117188 211.535156 362.859375 C 211.691406 363 211.703125 363.238281 211.5625 363.394531 C 211.488281 363.480469 211.382812 363.523438 211.28125 363.523438 Z M 211.28125 363.523438 "/>
<path style=" stroke:none;fill-rule:nonzero;fill:rgb(74.509805%,76.47059%,81.176472%);fill-opacity:1;" d="M 228.796875 410.035156 C 217.859375 393.511719 203.050781 378.933594 184.636719 371.648438 C 173.125 367.089844 160.664062 365.53125 148.8125 361.960938 C 138.386719 358.820312 127.9375 353.65625 121.410156 345.125 C 120.71875 344.222656 119.269531 344.851562 119.46875 345.972656 C 122.503906 363.292969 137.4375 377.121094 153.5 385.054688 C 170.945312 393.667969 190.429688 397.4375 208.039062 405.714844 C 225.566406 413.957031 242.09375 428.648438 244.3125 447.882812 C 244.332031 448.050781 244.390625 448.214844 244.488281 448.355469 L 248.667969 454.617188 C 249.398438 455.714844 251.089844 454.816406 250.589844 453.59375 C 244.414062 438.515625 237.777344 423.597656 228.796875 410.035156 Z M 228.796875 410.035156 "/>
<path style=" stroke:none;fill-rule:nonzero;fill:rgb(86.274511%,86.666667%,87.450981%);fill-opacity:1;" d="M 135.511719 361.949219 C 136.308594 362.753906 137.207031 363.460938 138.121094 364.136719 C 138.578125 364.472656 139.054688 364.785156 139.519531 365.109375 C 139.996094 365.421875 140.480469 365.71875 140.960938 366.023438 C 141.441406 366.332031 141.945312 366.597656 142.433594 366.886719 L 143.171875 367.308594 L 143.929688 367.703125 L 145.441406 368.492188 L 146.984375 369.222656 C 151.101562 371.15625 155.386719 372.71875 159.726562 374.066406 C 160.820312 374.386719 161.898438 374.75 162.996094 375.039062 L 166.292969 375.925781 C 168.496094 376.488281 170.714844 376.964844 172.929688 377.503906 C 175.152344 378.042969 177.378906 378.550781 179.5625 379.226562 L 181.210938 379.703125 L 182.03125 379.941406 C 182.304688 380.023438 182.574219 380.121094 182.84375 380.210938 L 186.089844 381.3125 C 186.363281 381.40625 186.632812 381.496094 186.902344 381.59375 L 190.886719 383.175781 C 191.421875 383.378906 191.929688 383.644531 192.453125 383.871094 L 195.570312 385.304688 L 198.613281 386.890625 C 202.625 389.085938 206.488281 391.566406 210.074219 394.414062 C 213.636719 397.289062 216.929688 400.492188 219.890625 403.976562 C 222.835938 407.472656 225.4375 411.25 227.679688 415.226562 C 227.699219 415.257812 227.6875 415.296875 227.65625 415.316406 C 227.625 415.332031 227.585938 415.320312 227.566406 415.292969 C 225.246094 411.371094 222.570312 407.664062 219.570312 404.25 C 216.585938 400.824219 213.277344 397.683594 209.710938 394.871094 C 206.117188 392.09375 202.296875 389.625 198.300781 387.46875 L 195.277344 385.90625 L 192.179688 384.496094 C 191.65625 384.269531 191.152344 384.011719 190.621094 383.8125 L 189.035156 383.1875 L 187.453125 382.5625 L 186.660156 382.246094 C 186.394531 382.144531 186.125 382.058594 185.855469 381.964844 L 182.636719 380.855469 C 182.367188 380.765625 182.101562 380.667969 181.828125 380.582031 L 181.011719 380.34375 L 179.378906 379.863281 C 178.285156 379.550781 177.207031 379.191406 176.097656 378.941406 L 172.789062 378.117188 C 170.585938 377.554688 168.351562 377.050781 166.152344 376.457031 L 162.855469 375.53125 C 161.753906 375.226562 160.675781 374.851562 159.585938 374.511719 C 155.246094 373.101562 150.96875 371.472656 146.863281 369.476562 L 145.324219 368.722656 L 143.816406 367.910156 L 143.066406 367.503906 L 142.328125 367.066406 C 141.839844 366.769531 141.339844 366.496094 140.863281 366.179688 C 140.386719 365.867188 139.902344 365.566406 139.429688 365.246094 C 138.964844 364.910156 138.492188 364.59375 138.035156 364.246094 C 137.128906 363.554688 136.238281 362.839844 135.441406 362.007812 C 135.425781 361.988281 135.425781 361.960938 135.445312 361.941406 C 135.460938 361.925781 135.492188 361.925781 135.507812 361.941406 Z M 135.511719 361.949219 "/>
<path style=" stroke:none;fill-rule:nonzero;fill:rgb(86.274511%,86.666667%,87.450981%);fill-opacity:1;" d="M 209.191406 422.996094 C 183.164062 411.140625 152.757812 414.621094 125.144531 422.054688 C 104.578125 427.589844 84.445312 435.191406 63.761719 439.972656 C 54.6875 442.070312 51.621094 453.484375 58.375 459.910156 C 69.6875 470.675781 81.75 480.585938 95.316406 488.230469 C 115.507812 499.601562 139.589844 505.601562 162.140625 500.285156 C 176.726562 496.847656 189.914062 488.925781 204.390625 485.050781 C 225.265625 479.460938 248.390625 482.882812 266.757812 494.28125 C 269.878906 496.21875 272.847656 498.382812 275.65625 500.742188 C 271.320312 493.042969 267.058594 485.292969 262.558594 477.722656 C 249.316406 455.472656 232.738281 433.726562 209.191406 422.996094 Z M 209.191406 422.996094 "/>
<path style=" stroke:none;fill-rule:nonzero;fill:rgb(74.509805%,76.47059%,81.176472%);fill-opacity:1;" d="M 79.847656 454.925781 C 83.601562 455.484375 87.386719 455.886719 91.171875 456.234375 C 93.066406 456.382812 94.960938 456.554688 96.859375 456.65625 L 99.703125 456.835938 L 102.550781 456.964844 C 110.140625 457.308594 117.746094 457.261719 125.328125 456.90625 L 131.007812 456.570312 L 136.675781 456.042969 L 138.09375 455.910156 L 139.503906 455.726562 L 142.320312 455.355469 L 145.140625 454.980469 C 146.078125 454.839844 147.007812 454.660156 147.945312 454.5 L 150.742188 454.007812 L 152.144531 453.761719 C 152.375 453.722656 152.609375 453.683594 152.84375 453.636719 L 153.535156 453.480469 L 159.085938 452.261719 C 160.9375 451.867188 162.789062 451.371094 164.644531 450.941406 L 167.425781 450.285156 L 170.21875 449.652344 C 177.664062 448 185.183594 446.53125 192.824219 445.839844 C 200.441406 445.128906 208.226562 445.289062 215.742188 446.984375 C 223.257812 448.648438 230.390625 451.921875 236.632812 456.363281 C 239.765625 458.570312 242.714844 461.023438 245.496094 463.648438 C 248.265625 466.285156 250.863281 469.089844 253.351562 471.984375 C 253.417969 472.0625 253.410156 472.183594 253.332031 472.253906 C 253.253906 472.320312 253.136719 472.3125 253.066406 472.238281 L 253.066406 472.234375 C 250.507812 469.417969 247.847656 466.699219 245.054688 464.125 C 242.242188 461.574219 239.273438 459.203125 236.136719 457.082031 C 233 454.96875 229.695312 453.101562 226.242188 451.589844 C 222.785156 450.074219 219.175781 448.921875 215.492188 448.140625 C 211.804688 447.355469 208.042969 446.945312 204.273438 446.832031 C 200.5 446.722656 196.71875 446.882812 192.953125 447.238281 C 185.414062 447.949219 177.953125 449.433594 170.546875 451.109375 L 167.769531 451.75 L 164.996094 452.414062 C 163.144531 452.851562 161.316406 453.347656 159.445312 453.757812 L 153.84375 455.011719 L 153.140625 455.164062 C 152.90625 455.210938 152.671875 455.246094 152.4375 455.289062 L 151.023438 455.527344 L 148.191406 456.007812 C 147.25 456.164062 146.308594 456.339844 145.363281 456.476562 L 139.675781 457.195312 L 138.25 457.375 L 136.824219 457.5 L 131.113281 457.996094 L 125.390625 458.300781 C 117.753906 458.601562 110.113281 458.464844 102.496094 458 L 99.640625 457.820312 L 96.789062 457.570312 C 94.886719 457.414062 92.992188 457.1875 91.097656 456.984375 C 87.308594 456.53125 83.53125 456.019531 79.777344 455.300781 C 79.675781 455.28125 79.605469 455.179688 79.625 455.078125 C 79.644531 454.976562 79.742188 454.910156 79.839844 454.925781 Z M 79.847656 454.925781 "/>
<path style=" stroke:none;fill-rule:nonzero;fill:rgb(74.509805%,76.47059%,81.176472%);fill-opacity:1;" d="M 203.613281 523.8125 L 253.675781 536.132812 L 305.496094 539.09375 L 370.414062 523.8125 L 287.015625 566.046875 Z M 203.613281 523.8125 "/>
<path style=" stroke:none;fill-rule:nonzero;fill:rgb(23.137255%,27.058825%,35.294119%);fill-opacity:1;" d="M 244.441406 443.214844 C 248.664062 440.308594 253.335938 438.117188 258.289062 436.765625 C 260.148438 436.261719 270.1875 439.183594 276.398438 439.039062 C 284.917969 438.84375 293.589844 434.960938 300.613281 436.714844 C 307.589844 438.453125 313.300781 440.726562 316.601562 443.074219 C 326.46875 450.101562 332.261719 463.207031 335.792969 476.1875 C 329.109375 483.058594 320.691406 486.113281 320.691406 486.113281 L 311.972656 543.273438 C 291.417969 553.597656 270.714844 552.269531 249.898438 541.832031 L 240.867188 485.257812 C 240.867188 485.257812 227.359375 478.960938 226.371094 476.671875 C 225.378906 474.378906 232.527344 451.417969 244.441406 443.214844 Z M 244.441406 443.214844 "/>
<path style=" stroke:none;fill-rule:nonzero;fill:rgb(23.137255%,27.058825%,35.294119%);fill-opacity:1;" d="M 225.261719 566.046875 C 234.664062 564.1875 256.242188 566.003906 256.242188 566.003906 L 257.0625 568.414062 L 258.222656 580.304688 C 258.222656 580.304688 237.554688 583.382812 227.410156 583.0625 C 226.375 583.03125 225.433594 582.847656 224.578125 582.550781 C 224.273438 582.261719 223.976562 581.964844 223.699219 581.644531 C 219.515625 576.804688 220.929688 569.933594 225.261719 566.046875 Z M 225.261719 566.046875 "/>
<path style=" stroke:none;fill-rule:nonzero;fill:rgb(97.254902%,76.078433%,64.705884%);fill-opacity:1;" d="M 262.464844 565.527344 L 258.804688 565.574219 C 256.835938 565.597656 254.960938 566.5 253.597656 568.078125 C 252.234375 569.652344 251.503906 571.773438 251.5625 573.957031 C 251.613281 575.699219 252.285156 577.34375 253.429688 578.535156 C 254.578125 579.722656 256.105469 580.359375 257.671875 580.292969 L 263.277344 580.066406 Z M 262.464844 565.527344 "/>
<path style=" stroke:none;fill-rule:nonzero;fill:rgb(86.274511%,86.666667%,87.450981%);fill-opacity:1;" d="M 388.117188 530.046875 C 383.878906 520.273438 373.503906 518.6875 364.675781 523.257812 C 364.523438 523.460938 308.613281 552.148438 259.304688 564.722656 C 260.71875 569.253906 261.441406 574.074219 261.601562 578.8125 C 261.628906 579.867188 261.613281 580.90625 261.550781 581.9375 C 299.363281 579.992188 340.398438 567.367188 375.660156 556.273438 C 386.59375 552.742188 392.820312 540.878906 388.117188 530.046875 Z M 388.117188 530.046875 "/>
<path style=" stroke:none;fill-rule:nonzero;fill:rgb(23.137255%,27.058825%,35.294119%);fill-opacity:1;" d="M 335.265625 567.1875 C 325.914062 565.039062 304.300781 566.195312 304.300781 566.195312 L 303.421875 568.578125 L 301.964844 580.425781 C 301.964844 580.425781 322.546875 584.140625 332.695312 584.128906 C 333.730469 584.128906 334.675781 583.972656 335.542969 583.703125 C 335.851562 583.425781 336.152344 583.136719 336.4375 582.824219 C 340.742188 578.117188 339.5 571.203125 335.265625 567.1875 Z M 335.265625 567.1875 "/>
<path style=" stroke:none;fill-rule:nonzero;fill:rgb(97.254902%,76.078433%,64.705884%);fill-opacity:1;" d="M 298.089844 565.527344 L 301.75 565.683594 C 303.714844 565.765625 305.570312 566.726562 306.890625 568.34375 C 308.214844 569.960938 308.894531 572.105469 308.777344 574.285156 C 308.6875 576.023438 307.972656 577.652344 306.796875 578.804688 C 305.621094 579.957031 304.082031 580.542969 302.515625 580.433594 L 296.914062 580.035156 Z M 298.089844 565.527344 "/>
<path style=" stroke:none;fill-rule:nonzero;fill:rgb(86.274511%,86.666667%,87.450981%);fill-opacity:1;" d="M 298.359375 579.554688 C 298.210938 574.09375 299.273438 569.007812 301.539062 564.300781 C 301.605469 564.085938 301.683594 563.878906 301.753906 563.664062 C 298.9375 562.792969 295.300781 561.609375 290.519531 559.984375 C 255.507812 547.988281 228.796875 535.875 203.304688 521.933594 C 193.402344 516.515625 182.140625 520.144531 178.972656 531.878906 C 176.140625 542.351562 182.355469 551.292969 191.789062 554.433594 C 220.007812 563.835938 270.082031 578.835938 298.417969 580.742188 C 298.398438 580.347656 298.371094 579.949219 298.359375 579.554688 Z M 298.359375 579.554688 "/>
<path style=" stroke:none;fill-rule:nonzero;fill:rgb(97.254902%,76.078433%,64.705884%);fill-opacity:1;" d="M 258.289062 436.765625 C 258.289062 436.765625 262.054688 453.105469 280.335938 452.765625 C 298.953125 452.425781 300.613281 436.714844 300.613281 436.714844 L 288.453125 434.109375 L 287.433594 420.539062 L 269.136719 421.894531 L 268.800781 434.785156 Z M 258.289062 436.765625 "/>
<path style=" stroke:none;fill-rule:nonzero;fill:rgb(97.254902%,76.078433%,64.705884%);fill-opacity:1;" d="M 195.878906 515.109375 C 195.878906 515.109375 192.269531 515.515625 190.203125 514.625 C 188.136719 513.730469 179.996094 512.972656 178.273438 510.539062 C 178.273438 510.539062 176.285156 513.679688 179.167969 514.855469 C 182.054688 516.027344 186.460938 518.089844 183.320312 520.851562 C 180.183594 523.613281 178.785156 521.304688 178.976562 518.078125 C 179.167969 514.855469 178.3125 515.070312 176.75 514.644531 C 176.75 514.644531 173.226562 519.941406 177.621094 523.097656 C 177.621094 523.097656 165.570312 520.96875 166.292969 525.785156 L 177.597656 525.832031 C 177.597656 525.832031 165.960938 528.351562 168.644531 532.777344 L 178.769531 529.34375 C 178.769531 529.34375 172.542969 531.523438 173.871094 534.574219 C 173.871094 534.574219 193.171875 524.601562 196.730469 523.8125 C 200.289062 523.023438 195.878906 515.109375 195.878906 515.109375 Z M 195.878906 515.109375 "/>
<path style=" stroke:none;fill-rule:nonzero;fill:rgb(97.254902%,76.078433%,64.705884%);fill-opacity:1;" d="M 228.140625 476.132812 C 228.140625 476.132812 214.136719 507.125 195.878906 515.109375 L 196.730469 523.8125 C 196.730469 523.8125 223.820312 522.820312 243.164062 484.953125 C 243.164062 484.953125 237.984375 473.023438 228.140625 476.132812 Z M 228.140625 476.132812 "/>
<path style=" stroke:none;fill-rule:nonzero;fill:rgb(97.254902%,76.078433%,64.705884%);fill-opacity:1;" d="M 366.507812 515.109375 C 366.507812 515.109375 370.117188 515.515625 372.183594 514.625 C 374.253906 513.730469 382.390625 512.972656 384.113281 510.539062 C 384.113281 510.539062 386.105469 513.679688 383.21875 514.855469 C 380.335938 516.027344 375.929688 518.089844 379.066406 520.851562 C 382.203125 523.613281 383.601562 521.304688 383.410156 518.078125 C 383.21875 514.855469 384.074219 515.070312 385.636719 514.644531 C 385.636719 514.644531 389.164062 519.941406 384.765625 523.097656 C 384.765625 523.097656 396.816406 520.96875 396.097656 525.785156 L 384.792969 525.832031 C 384.792969 525.832031 396.425781 528.351562 393.746094 532.777344 L 383.621094 529.34375 C 383.621094 529.34375 389.847656 531.523438 388.515625 534.574219 C 388.515625 534.574219 369.214844 524.601562 365.65625 523.8125 C 362.101562 523.023438 366.507812 515.109375 366.507812 515.109375 Z M 366.507812 515.109375 "/>
<path style=" stroke:none;fill-rule:nonzero;fill:rgb(97.254902%,76.078433%,64.705884%);fill-opacity:1;" d="M 334.25 476.132812 C 334.25 476.132812 348.25 507.125 366.507812 515.109375 L 365.65625 523.8125 C 365.65625 523.8125 338.566406 522.820312 319.222656 484.953125 C 319.222656 484.953125 324.40625 473.023438 334.25 476.132812 Z M 334.25 476.132812 "/>
<path style=" stroke:none;fill-rule:nonzero;fill:rgb(97.254902%,76.078433%,64.705884%);fill-opacity:1;" d="M 265.632812 392.011719 C 265.632812 392.011719 257.59375 425.039062 278.027344 430.238281 C 292.441406 433.902344 297.617188 406.246094 294.125 399.390625 C 288.726562 388.785156 286.285156 390.441406 286.285156 390.441406 Z M 265.632812 392.011719 "/>
<path style=" stroke:none;fill-rule:nonzero;fill:rgb(97.254902%,76.078433%,64.705884%);fill-opacity:1;" d="M 293.546875 409.097656 C 293.546875 409.097656 294.527344 402.644531 297.671875 403.742188 C 300.816406 404.839844 298.171875 413.066406 293.898438 413.746094 Z M 293.546875 409.097656 "/>
<path style=" stroke:none;fill-rule:nonzero;fill:rgb(97.254902%,76.078433%,64.705884%);fill-opacity:1;" d="M 265.613281 413.417969 L 265.097656 409.03125 C 265.097656 409.03125 263.816406 403 261.03125 403.847656 C 258.25 404.691406 259.722656 414.472656 265.613281 413.417969 Z M 265.613281 413.417969 "/>
<path style=" stroke:none;fill-rule:nonzero;fill:rgb(23.137255%,27.058825%,35.294119%);fill-opacity:1;" d="M 263.648438 405.285156 C 263.953125 406.074219 265.117188 405.890625 265.160156 405.046875 C 265.410156 400.011719 266.472656 392.390625 270.71875 395.746094 C 276.324219 400.171875 282.714844 398.722656 286.355469 396.445312 C 288.320312 395.21875 290.921875 395.933594 291.847656 398.058594 C 292.5625 399.699219 293.054688 402.492188 293.320312 405.171875 C 293.417969 406.175781 294.777344 406.402344 295.195312 405.484375 L 295.859375 404.027344 C 295.875 403.996094 295.882812 403.957031 295.882812 403.921875 L 295.882812 401.964844 C 295.882812 401.839844 295.972656 401.734375 296.097656 401.714844 C 296.777344 401.609375 298.773438 401.066406 297.488281 398.527344 C 297.429688 398.410156 297.46875 398.261719 297.582031 398.191406 C 298.078125 397.882812 299.191406 396.84375 297.996094 394.113281 C 297.949219 394.007812 297.976562 393.878906 298.074219 393.816406 C 298.996094 393.179688 303.394531 389.769531 300.710938 384.410156 C 298.121094 379.234375 294.472656 381.113281 293.550781 381.703125 C 293.429688 381.78125 293.277344 381.746094 293.207031 381.621094 C 292.75 380.816406 291.046875 378.304688 288.1875 379.65625 C 287.207031 380.117188 285.664062 379.90625 284.773438 379.285156 C 283.628906 378.480469 282.007812 377.910156 280.3125 379.125 C 278.960938 380.085938 277.109375 380.117188 275.824219 379.070312 C 274.039062 377.617188 271.175781 376.609375 267.183594 379.152344 C 260.761719 383.25 261.90625 388.71875 262.300781 390.046875 C 262.34375 390.195312 262.246094 390.347656 262.09375 390.363281 C 261.402344 390.4375 259.789062 390.855469 259.714844 393.179688 C 259.628906 396.015625 262.171875 400.46875 262.386719 400.835938 C 262.398438 400.855469 262.40625 400.871094 262.410156 400.890625 L 263.640625 405.261719 C 263.644531 405.269531 263.644531 405.277344 263.648438 405.285156 Z M 263.648438 405.285156 "/>
<path style=" stroke:none;fill-rule:nonzero;fill:rgb(71.372551%,30.980393%,16.862746%);fill-opacity:1;" d="M 454.914062 189.816406 C 454.914062 189.816406 455.761719 122.714844 387.367188 126.847656 C 387.367188 126.847656 383.726562 183.414062 454.914062 189.816406 Z M 454.914062 189.816406 "/>
<path style=" stroke:none;fill-rule:nonzero;fill:rgb(71.372551%,30.980393%,16.862746%);fill-opacity:1;" d="M 460.625 186.09375 C 460.625 186.09375 436.414062 112.660156 558.628906 79.386719 C 558.628906 79.386719 563.363281 182.039062 460.625 186.09375 Z M 460.625 186.09375 "/>
<path style=" stroke:none;fill-rule:nonzero;fill:rgb(80.784315%,49.019608%,38.039216%);fill-opacity:1;" d="M 406.945312 143.875 C 406.945312 143.875 444.296875 157.636719 452.152344 186.09375 C 452.152344 186.09375 428.917969 153.101562 406.945312 143.875 Z M 406.945312 143.875 "/>
<path style=" stroke:none;fill-rule:nonzero;fill:rgb(80.784315%,49.019608%,38.039216%);fill-opacity:1;" d="M 466.269531 179.582031 C 466.269531 179.582031 487.558594 117.25 525.757812 107.304688 C 525.757812 107.304688 490.003906 132.925781 466.269531 179.582031 Z M 466.269531 179.582031 "/>
</g>
</svg>
