<?xml version="1.0" encoding="UTF-8"?>
<svg xmlns="http://www.w3.org/2000/svg" xmlns:xlink="http://www.w3.org/1999/xlink" width="px" height="px" viewBox="0 0 912 624" version="1.1">
<defs>
<filter id="alpha" filterUnits="objectBoundingBox" x="0%" y="0%" width="100%" height="100%">
  <feColorMatrix type="matrix" in="SourceGraphic" values="0 0 0 0 1 0 0 0 0 1 0 0 0 0 1 0 0 0 1 0"/>
</filter>
<mask id="mask0">
  <g filter="url(#alpha)">
<rect x="0" y="0" width="912" height="624" style="fill:rgb(0%,0%,0%);fill-opacity:0.301961;stroke:none;"/>
  </g>
</mask>
<clipPath id="clip1">
  <rect x="0" y="0" width="912" height="624"/>
</clipPath>
<g id="surface5" clip-path="url(#clip1)">
<path style=" stroke:none;fill-rule:nonzero;fill:rgb(71.372551%,30.980393%,16.862746%);fill-opacity:1;" d="M 328.207031 57.144531 C 327.527344 57.828125 326.421875 57.828125 325.738281 57.144531 C 324.417969 55.820312 323.015625 54.535156 321.578125 53.324219 C 320.847656 52.710938 320.75 51.628906 321.347656 50.890625 C 321.351562 50.882812 321.359375 50.875 321.367188 50.863281 C 321.988281 50.128906 323.089844 50.035156 323.824219 50.65625 C 325.339844 51.933594 326.816406 53.285156 328.207031 54.679688 C 328.847656 55.316406 328.886719 56.324219 328.332031 57.007812 C 328.292969 57.058594 328.25 57.101562 328.207031 57.144531 Z M 314.167969 47.902344 C 312.578125 46.894531 310.929688 45.949219 309.269531 45.085938 C 308.414062 44.644531 308.082031 43.589844 308.523438 42.734375 C 308.972656 41.878906 310.023438 41.546875 310.875 41.992188 C 312.625 42.898438 314.359375 43.894531 316.03125 44.949219 C 316.847656 45.464844 317.089844 46.542969 316.574219 47.359375 C 316.539062 47.417969 316.496094 47.472656 316.453125 47.527344 C 315.90625 48.203125 314.925781 48.378906 314.167969 47.902344 Z M 300.851562 41.4375 C 299.082031 40.816406 297.265625 40.261719 295.445312 39.789062 C 294.515625 39.550781 293.953125 38.597656 294.195312 37.664062 C 294.4375 36.734375 295.386719 36.171875 296.320312 36.414062 C 298.234375 36.90625 300.148438 37.492188 302.011719 38.148438 C 302.917969 38.46875 303.394531 39.464844 303.074219 40.375 C 303.007812 40.566406 302.910156 40.742188 302.785156 40.894531 C 302.335938 41.449219 301.566406 41.691406 300.851562 41.4375 Z M 286.421875 38.117188 C 284.554688 37.90625 282.65625 37.769531 280.78125 37.71875 C 279.820312 37.691406 279.0625 36.886719 279.085938 35.925781 C 279.117188 34.960938 279.917969 34.203125 280.878906 34.230469 C 282.855469 34.285156 284.851562 34.425781 286.816406 34.652344 C 287.773438 34.761719 288.460938 35.625 288.351562 36.582031 C 288.3125 36.925781 288.175781 37.234375 287.972656 37.480469 C 287.609375 37.929688 287.035156 38.1875 286.421875 38.117188 Z M 271.609375 38.09375 C 269.746094 38.300781 267.867188 38.589844 266.023438 38.953125 C 265.078125 39.140625 264.160156 38.523438 263.972656 37.578125 C 263.789062 36.632812 264.402344 35.714844 265.347656 35.53125 C 267.289062 35.148438 269.265625 34.84375 271.226562 34.628906 C 272.183594 34.519531 273.046875 35.210938 273.152344 36.167969 C 273.207031 36.652344 273.058594 37.109375 272.773438 37.460938 C 272.496094 37.804688 272.085938 38.042969 271.609375 38.09375 Z M 257.164062 41.347656 C 255.390625 41.960938 253.621094 42.660156 251.90625 43.421875 C 251.027344 43.8125 249.996094 43.417969 249.605469 42.535156 C 249.214844 41.65625 249.609375 40.625 250.492188 40.234375 C 252.296875 39.429688 254.15625 38.699219 256.023438 38.050781 C 256.933594 37.738281 257.925781 38.21875 258.242188 39.128906 C 258.449219 39.722656 258.316406 40.347656 257.949219 40.800781 C 257.75 41.042969 257.484375 41.238281 257.164062 41.347656 Z M 212.667969 88.429688 C 211.734375 88.1875 211.175781 87.234375 211.417969 86.300781 C 211.914062 84.390625 212.503906 82.476562 213.164062 80.613281 C 213.488281 79.703125 214.484375 79.230469 215.390625 79.550781 C 216.300781 79.875 216.773438 80.871094 216.453125 81.777344 C 215.824219 83.550781 215.265625 85.367188 214.792969 87.179688 C 214.730469 87.429688 214.613281 87.652344 214.460938 87.839844 C 214.042969 88.355469 213.347656 88.609375 212.667969 88.429688 Z M 243.808594 47.71875 C 242.214844 48.710938 240.648438 49.785156 239.148438 50.910156 C 238.378906 51.488281 237.285156 51.332031 236.707031 50.5625 C 236.128906 49.789062 236.289062 48.699219 237.054688 48.117188 C 238.636719 46.933594 240.285156 45.804688 241.960938 44.757812 C 242.78125 44.25 243.855469 44.5 244.367188 45.316406 C 244.769531 45.964844 244.695312 46.777344 244.242188 47.339844 C 244.121094 47.484375 243.976562 47.613281 243.808594 47.71875 Z M 217.765625 74.105469 C 216.910156 73.660156 216.578125 72.605469 217.023438 71.753906 C 217.9375 70.003906 218.9375 68.269531 219.996094 66.597656 C 220.507812 65.78125 221.589844 65.542969 222.402344 66.058594 C 223.21875 66.578125 223.457031 67.65625 222.941406 68.46875 C 221.933594 70.054688 220.984375 71.703125 220.117188 73.367188 C 220.0625 73.472656 220 73.570312 219.925781 73.660156 C 219.414062 74.289062 218.511719 74.496094 217.765625 74.105469 Z M 232.210938 56.914062 C 230.882812 58.238281 229.59375 59.632812 228.382812 61.066406 C 227.757812 61.804688 226.660156 61.894531 225.921875 61.273438 C 225.195312 60.660156 225.097656 59.578125 225.695312 58.84375 C 225.703125 58.835938 225.710938 58.824219 225.71875 58.816406 C 226.996094 57.304688 228.351562 55.835938 229.75 54.441406 C 230.433594 53.761719 231.535156 53.765625 232.21875 54.449219 C 232.851562 55.085938 232.890625 56.09375 232.335938 56.777344 C 232.296875 56.824219 232.257812 56.871094 232.210938 56.914062 Z M 232.210938 56.914062 "/>
<path style=" stroke:none;fill-rule:nonzero;fill:rgb(71.372551%,30.980393%,16.862746%);fill-opacity:1;" d="M 212.460938 99.925781 C 212.675781 99.660156 212.816406 99.324219 212.84375 98.957031 C 212.910156 98.058594 212.996094 97.148438 213.097656 96.25 C 213.207031 95.292969 212.523438 94.425781 211.566406 94.316406 C 210.609375 94.207031 209.742188 94.894531 209.632812 95.851562 C 209.523438 96.796875 209.433594 97.753906 209.363281 98.699219 C 209.292969 99.660156 210.015625 100.496094 210.976562 100.566406 C 211.566406 100.609375 212.113281 100.355469 212.460938 99.925781 Z M 212.460938 99.925781 "/>
</g>
<mask id="mask1">
  <g filter="url(#alpha)">
<rect x="0" y="0" width="912" height="624" style="fill:rgb(0%,0%,0%);fill-opacity:0.301961;stroke:none;"/>
  </g>
</mask>
<clipPath id="clip2">
  <rect x="0" y="0" width="912" height="624"/>
</clipPath>
<g id="surface8" clip-path="url(#clip2)">
<path style=" stroke:none;fill-rule:nonzero;fill:rgb(71.372551%,30.980393%,16.862746%);fill-opacity:1;" d="M 229.570312 150.285156 C 230.101562 149.628906 230.09375 148.671875 229.515625 148.023438 C 228.914062 147.351562 228.316406 146.660156 227.742188 145.960938 C 227.128906 145.21875 226.03125 145.113281 225.285156 145.726562 C 224.539062 146.339844 224.4375 147.4375 225.050781 148.179688 C 225.65625 148.914062 226.285156 149.644531 226.914062 150.351562 C 227.558594 151.070312 228.660156 151.128906 229.378906 150.488281 C 229.449219 150.421875 229.511719 150.355469 229.570312 150.285156 Z M 229.570312 150.285156 "/>
<path style=" stroke:none;fill-rule:nonzero;fill:rgb(71.372551%,30.980393%,16.862746%);fill-opacity:1;" d="M 330.714844 150.4375 C 330.070312 151.15625 328.96875 151.21875 328.25 150.574219 C 327.53125 149.929688 327.472656 148.828125 328.113281 148.109375 C 329.335938 146.746094 330.523438 145.304688 331.648438 143.816406 C 332.222656 143.046875 333.324219 142.894531 334.09375 143.476562 C 334.859375 144.058594 335.011719 145.152344 334.429688 145.921875 C 333.945312 146.566406 333.445312 147.199219 332.941406 147.824219 C 332.21875 148.714844 331.472656 149.59375 330.714844 150.4375 Z M 337.265625 138.632812 C 336.425781 138.160156 336.125 137.097656 336.597656 136.257812 C 337.503906 134.644531 338.351562 132.976562 339.117188 131.300781 C 339.515625 130.421875 340.550781 130.035156 341.429688 130.4375 C 342.304688 130.835938 342.691406 131.871094 342.292969 132.746094 C 341.484375 134.511719 340.59375 136.269531 339.640625 137.964844 C 339.589844 138.054688 339.535156 138.136719 339.472656 138.210938 C 338.949219 138.859375 338.015625 139.054688 337.265625 138.632812 Z M 323.902344 157.070312 C 322.421875 158.324219 320.867188 159.535156 319.28125 160.664062 C 318.496094 161.222656 317.40625 161.039062 316.847656 160.253906 C 316.289062 159.46875 316.472656 158.382812 317.257812 157.820312 C 318.761719 156.75 320.238281 155.601562 321.644531 154.410156 C 322.378906 153.785156 323.480469 153.875 324.101562 154.609375 C 324.65625 155.261719 324.648438 156.195312 324.128906 156.835938 C 324.0625 156.917969 323.988281 157 323.902344 157.070312 Z M 343.464844 125.015625 C 342.542969 124.742188 342.015625 123.769531 342.292969 122.84375 C 342.824219 121.078125 343.28125 119.261719 343.660156 117.457031 C 343.855469 116.511719 344.78125 115.90625 345.722656 116.105469 C 346.667969 116.304688 347.273438 117.226562 347.074219 118.171875 C 346.675781 120.070312 346.191406 121.980469 345.636719 123.84375 C 345.570312 124.070312 345.460938 124.273438 345.320312 124.445312 C 344.890625 124.976562 344.164062 125.226562 343.464844 125.015625 Z M 311.183594 165.628906 C 309.464844 166.527344 307.683594 167.363281 305.886719 168.117188 C 305 168.492188 303.976562 168.074219 303.605469 167.183594 C 303.230469 166.296875 303.648438 165.273438 304.539062 164.902344 C 306.242188 164.183594 307.933594 163.390625 309.566406 162.535156 C 310.421875 162.089844 311.476562 162.421875 311.921875 163.273438 C 312.253906 163.910156 312.15625 164.660156 311.730469 165.183594 C 311.585938 165.363281 311.402344 165.515625 311.183594 165.628906 Z M 296.894531 171.191406 C 295.015625 171.695312 293.09375 172.121094 291.183594 172.464844 C 290.234375 172.636719 289.328125 172.003906 289.160156 171.058594 C 288.988281 170.109375 289.617188 169.203125 290.566406 169.03125 C 292.382812 168.707031 294.210938 168.296875 295.996094 167.820312 C 296.925781 167.574219 297.882812 168.125 298.128906 169.054688 C 298.28125 169.617188 298.140625 170.1875 297.800781 170.605469 C 297.574219 170.882812 297.265625 171.09375 296.894531 171.191406 Z M 281.734375 173.507812 C 279.789062 173.589844 277.820312 173.589844 275.882812 173.507812 C 274.917969 173.46875 274.171875 172.65625 274.210938 171.691406 C 274.253906 170.730469 275.066406 169.984375 276.027344 170.023438 C 277.871094 170.101562 279.742188 170.101562 281.589844 170.023438 C 282.550781 169.980469 283.363281 170.730469 283.40625 171.691406 C 283.421875 172.132812 283.277344 172.546875 283.019531 172.863281 C 282.714844 173.238281 282.253906 173.488281 281.734375 173.507812 Z M 266.429688 172.464844 C 264.515625 172.117188 262.59375 171.683594 260.71875 171.179688 C 259.785156 170.929688 259.234375 169.972656 259.488281 169.042969 C 259.738281 168.113281 260.695312 167.558594 261.625 167.8125 C 263.40625 168.289062 265.230469 168.703125 267.050781 169.03125 C 268 169.199219 268.628906 170.109375 268.457031 171.054688 C 268.402344 171.355469 268.277344 171.621094 268.097656 171.84375 C 267.707031 172.320312 267.078125 172.582031 266.429688 172.464844 Z M 251.722656 168.078125 C 249.933594 167.320312 248.15625 166.476562 246.433594 165.570312 C 245.582031 165.121094 245.253906 164.0625 245.707031 163.210938 C 246.152344 162.363281 247.210938 162.03125 248.0625 162.484375 C 249.695312 163.34375 251.386719 164.148438 253.082031 164.867188 C 253.96875 165.242188 254.382812 166.265625 254.007812 167.152344 C 253.941406 167.308594 253.859375 167.445312 253.757812 167.570312 C 253.28125 168.160156 252.453125 168.386719 251.722656 168.078125 Z M 238.347656 160.578125 C 237.183594 159.746094 236.03125 158.867188 234.921875 157.96875 C 234.519531 157.644531 234.125 157.316406 233.730469 156.984375 C 232.996094 156.359375 232.882812 155.257812 233.527344 154.523438 C 234.152344 153.789062 235.253906 153.699219 235.988281 154.320312 C 236.359375 154.636719 236.738281 154.949219 237.121094 155.257812 C 238.175781 156.113281 239.269531 156.949219 240.375 157.738281 C 241.160156 158.296875 241.339844 159.386719 240.78125 160.171875 C 240.761719 160.203125 240.738281 160.230469 240.714844 160.257812 C 240.140625 160.96875 239.101562 161.117188 238.347656 160.578125 Z M 238.347656 160.578125 "/>
<path style=" stroke:none;fill-rule:nonzero;fill:rgb(71.372551%,30.980393%,16.862746%);fill-opacity:1;" d="M 347.996094 109.683594 C 348.214844 109.414062 348.355469 109.078125 348.378906 108.707031 C 348.445312 107.761719 348.492188 106.800781 348.515625 105.847656 C 348.542969 104.882812 347.785156 104.082031 346.820312 104.054688 C 345.859375 104.03125 345.054688 104.789062 345.027344 105.753906 C 345.003906 106.660156 344.960938 107.570312 344.898438 108.464844 C 344.832031 109.425781 345.558594 110.257812 346.519531 110.328125 C 347.109375 110.367188 347.648438 110.109375 347.996094 109.683594 Z M 347.996094 109.683594 "/>
</g>
<mask id="mask2">
  <g filter="url(#alpha)">
<rect x="0" y="0" width="912" height="624" style="fill:rgb(0%,0%,0%);fill-opacity:0.301961;stroke:none;"/>
  </g>
</mask>
<clipPath id="clip3">
  <rect x="0" y="0" width="912" height="624"/>
</clipPath>
<g id="surface11" clip-path="url(#clip3)">
<path style=" stroke:none;fill-rule:nonzero;fill:rgb(71.372551%,30.980393%,16.862746%);fill-opacity:1;" d="M 401.535156 39.71875 C 401.828125 39.359375 401.863281 38.832031 401.582031 38.429688 C 401.0625 37.675781 400.515625 36.929688 399.949219 36.207031 C 399.582031 35.738281 398.90625 35.65625 398.4375 36.023438 C 397.96875 36.390625 397.886719 37.066406 398.253906 37.535156 C 398.789062 38.222656 399.3125 38.9375 399.808594 39.65625 C 400.148438 40.144531 400.820312 40.265625 401.308594 39.929688 C 401.394531 39.871094 401.46875 39.796875 401.535156 39.71875 Z M 401.535156 39.71875 "/>
<path style=" stroke:none;fill-rule:nonzero;fill:rgb(71.372551%,30.980393%,16.862746%);fill-opacity:1;" d="M 396.144531 33.441406 C 395.726562 33.863281 395.042969 33.863281 394.621094 33.445312 C 393.558594 32.386719 392.425781 31.367188 391.261719 30.421875 C 391.015625 30.222656 390.765625 30.027344 390.511719 29.832031 C 390.042969 29.464844 389.957031 28.789062 390.324219 28.320312 C 390.6875 27.886719 391.363281 27.765625 391.835938 28.128906 C 392.097656 28.332031 392.359375 28.539062 392.617188 28.75 C 393.839844 29.738281 395.027344 30.804688 396.140625 31.917969 C 396.539062 32.308594 396.5625 32.933594 396.21875 33.359375 C 396.195312 33.386719 396.171875 33.414062 396.144531 33.441406 Z M 385.996094 26.742188 C 384.429688 25.808594 382.796875 24.964844 381.136719 24.230469 C 380.589844 23.992188 380.34375 23.355469 380.582031 22.8125 C 380.824219 22.269531 381.460938 22.019531 382.003906 22.261719 C 383.746094 23.027344 385.460938 23.914062 387.101562 24.894531 C 387.609375 25.199219 387.777344 25.859375 387.472656 26.371094 C 387.445312 26.417969 387.414062 26.460938 387.382812 26.5 C 387.050781 26.90625 386.460938 27.023438 385.996094 26.742188 Z M 376 22.339844 C 374.257812 21.820312 372.464844 21.402344 370.671875 21.097656 C 370.082031 21 369.6875 20.445312 369.785156 19.859375 C 369.886719 19.269531 370.441406 18.875 371.027344 18.972656 C 372.910156 19.289062 374.789062 19.730469 376.617188 20.277344 C 377.1875 20.445312 377.511719 21.046875 377.339844 21.617188 C 377.296875 21.753906 377.230469 21.878906 377.144531 21.984375 C 376.878906 22.316406 376.429688 22.46875 376 22.339844 Z M 365.226562 20.527344 C 363.410156 20.449219 361.566406 20.480469 359.757812 20.628906 C 359.164062 20.675781 358.644531 20.234375 358.597656 19.640625 C 358.550781 19.050781 358.992188 18.527344 359.585938 18.480469 C 361.484375 18.328125 363.414062 18.292969 365.320312 18.375 C 365.914062 18.398438 366.378906 18.902344 366.351562 19.496094 C 366.339844 19.738281 366.253906 19.957031 366.113281 20.128906 C 365.90625 20.382812 365.582031 20.542969 365.226562 20.527344 Z M 354.339844 21.398438 C 352.558594 21.765625 350.78125 22.246094 349.058594 22.824219 C 348.496094 23.015625 347.882812 22.710938 347.695312 22.148438 C 347.503906 21.582031 347.804688 20.972656 348.371094 20.78125 C 350.175781 20.175781 352.039062 19.671875 353.90625 19.289062 C 354.488281 19.167969 355.058594 19.542969 355.179688 20.125 C 355.246094 20.453125 355.15625 20.78125 354.960938 21.023438 C 354.808594 21.207031 354.59375 21.347656 354.339844 21.398438 Z M 343.996094 24.886719 C 342.355469 25.675781 340.75 26.574219 339.226562 27.554688 C 338.726562 27.878906 338.058594 27.734375 337.734375 27.234375 C 337.414062 26.734375 337.558594 26.070312 338.058594 25.746094 C 339.65625 24.714844 341.339844 23.769531 343.058594 22.945312 C 343.597656 22.6875 344.242188 22.914062 344.496094 23.449219 C 344.683594 23.835938 344.617188 24.28125 344.363281 24.59375 C 344.265625 24.714844 344.144531 24.816406 343.996094 24.886719 Z M 334.820312 30.796875 C 333.429688 31.960938 332.089844 33.222656 330.847656 34.558594 C 330.441406 34.992188 329.757812 35.015625 329.324219 34.609375 C 328.890625 34.207031 328.871094 33.53125 329.273438 33.085938 C 330.578125 31.691406 331.976562 30.363281 333.4375 29.144531 C 333.894531 28.761719 334.574219 28.824219 334.953125 29.28125 C 335.289062 29.679688 335.28125 30.253906 334.964844 30.648438 C 334.921875 30.699219 334.875 30.75 334.820312 30.796875 Z M 322.964844 43.820312 C 322.445312 43.53125 322.257812 42.875 322.542969 42.355469 C 323.34375 40.914062 324.234375 39.492188 325.1875 38.128906 C 325.332031 37.921875 325.476562 37.71875 325.625 37.515625 C 325.960938 37.027344 326.652344 36.925781 327.132812 37.277344 C 327.613281 37.628906 327.71875 38.300781 327.367188 38.785156 C 327.230469 38.972656 327.09375 39.167969 326.953125 39.363281 C 326.039062 40.667969 325.191406 42.023438 324.429688 43.398438 C 324.398438 43.453125 324.363281 43.507812 324.324219 43.554688 C 324 43.953125 323.429688 44.074219 322.964844 43.820312 Z M 322.964844 43.820312 "/>
</g>
<mask id="mask3">
  <g filter="url(#alpha)">
<rect x="0" y="0" width="912" height="624" style="fill:rgb(0%,0%,0%);fill-opacity:0.301961;stroke:none;"/>
  </g>
</mask>
<clipPath id="clip4">
  <rect x="0" y="0" width="912" height="624"/>
</clipPath>
<g id="surface14" clip-path="url(#clip4)">
<path style=" stroke:none;fill-rule:nonzero;fill:rgb(71.372551%,30.980393%,16.862746%);fill-opacity:1;" d="M 399.011719 94.679688 C 397.808594 96.125 396.507812 97.503906 395.148438 98.789062 C 394.714844 99.195312 394.03125 99.175781 393.625 98.742188 C 393.214844 98.308594 393.242188 97.628906 393.667969 97.21875 C 394.96875 95.996094 396.207031 94.679688 397.355469 93.300781 C 397.734375 92.84375 398.414062 92.78125 398.871094 93.164062 C 399.324219 93.539062 399.390625 94.210938 399.019531 94.667969 C 399.015625 94.671875 399.015625 94.675781 399.011719 94.679688 Z M 400.867188 90.453125 C 400.367188 90.128906 400.222656 89.460938 400.546875 88.964844 C 401.519531 87.460938 402.410156 85.882812 403.195312 84.273438 C 403.453125 83.746094 404.101562 83.519531 404.636719 83.78125 C 405.171875 84.042969 405.390625 84.6875 405.132812 85.222656 C 404.308594 86.90625 403.375 88.558594 402.355469 90.132812 C 402.332031 90.167969 402.3125 90.199219 402.285156 90.226562 C 401.945312 90.648438 401.332031 90.753906 400.867188 90.453125 Z M 390.808594 102.402344 C 389.292969 103.511719 387.699219 104.539062 386.066406 105.453125 C 385.546875 105.746094 384.890625 105.5625 384.597656 105.042969 C 384.308594 104.523438 384.492188 103.867188 385.011719 103.574219 C 386.566406 102.703125 388.089844 101.722656 389.535156 100.664062 C 390.015625 100.3125 390.691406 100.414062 391.042969 100.894531 C 391.335938 101.296875 391.3125 101.839844 391.007812 102.210938 C 390.953125 102.28125 390.886719 102.34375 390.808594 102.402344 Z M 405.921875 80.671875 C 405.359375 80.480469 405.0625 79.867188 405.253906 79.304688 C 405.835938 77.613281 406.320312 75.867188 406.691406 74.117188 C 406.816406 73.535156 407.390625 73.164062 407.96875 73.285156 C 408.550781 73.410156 408.921875 73.984375 408.800781 74.566406 C 408.410156 76.398438 407.902344 78.230469 407.292969 80.003906 C 407.25 80.128906 407.1875 80.238281 407.109375 80.332031 C 406.832031 80.675781 406.363281 80.824219 405.921875 80.671875 Z M 380.988281 107.910156 C 379.253906 108.621094 377.457031 109.234375 375.648438 109.730469 C 375.074219 109.890625 374.480469 109.550781 374.324219 108.976562 C 374.164062 108.402344 374.503906 107.8125 375.078125 107.652344 C 376.804688 107.179688 378.515625 106.59375 380.167969 105.914062 C 380.71875 105.6875 381.347656 105.949219 381.574219 106.503906 C 381.730469 106.878906 381.65625 107.292969 381.414062 107.589844 C 381.304688 107.726562 381.160156 107.835938 380.988281 107.910156 Z M 370.128906 110.898438 C 368.273438 111.175781 366.382812 111.339844 364.507812 111.394531 C 363.914062 111.410156 363.421875 110.941406 363.402344 110.347656 C 363.386719 109.75 363.855469 109.253906 364.453125 109.238281 C 366.234375 109.191406 368.039062 109.03125 369.8125 108.765625 C 370.402344 108.679688 370.949219 109.085938 371.039062 109.675781 C 371.082031 109.984375 370.992188 110.285156 370.808594 110.511719 C 370.644531 110.714844 370.40625 110.859375 370.128906 110.898438 Z M 358.867188 111.203125 C 356.996094 111.027344 355.121094 110.734375 353.289062 110.335938 C 352.710938 110.207031 352.339844 109.632812 352.46875 109.050781 C 352.597656 108.46875 353.171875 108.101562 353.75 108.230469 C 355.496094 108.613281 357.285156 108.890625 359.070312 109.058594 C 359.664062 109.113281 360.097656 109.640625 360.042969 110.230469 C 360.023438 110.453125 359.933594 110.648438 359.804688 110.808594 C 359.585938 111.078125 359.242188 111.238281 358.867188 111.203125 Z M 358.867188 111.203125 "/>
<path style=" stroke:none;fill-rule:nonzero;fill:rgb(71.372551%,30.980393%,16.862746%);fill-opacity:1;" d="M 409.402344 69.515625 C 409.535156 69.355469 409.621094 69.152344 409.640625 68.929688 C 409.71875 68.011719 409.773438 67.085938 409.796875 66.179688 C 409.8125 65.585938 409.34375 65.089844 408.75 65.074219 C 408.15625 65.058594 407.660156 65.527344 407.640625 66.121094 C 407.617188 66.984375 407.566406 67.867188 407.492188 68.746094 C 407.441406 69.339844 407.878906 69.859375 408.472656 69.910156 C 408.84375 69.941406 409.1875 69.785156 409.402344 69.515625 Z M 409.402344 69.515625 "/>
</g>
<mask id="mask4">
  <g filter="url(#alpha)">
<rect x="0" y="0" width="912" height="624" style="fill:rgb(0%,0%,0%);fill-opacity:0.988235;stroke:none;"/>
  </g>
</mask>
<clipPath id="clip5">
  <rect x="0" y="0" width="912" height="624"/>
</clipPath>
<g id="surface17" clip-path="url(#clip5)">
<path style=" stroke:none;fill-rule:nonzero;fill:rgb(100%,100%,100%);fill-opacity:1;" d="M 290.726562 379.617188 C 290.726562 382.046875 292.695312 384.011719 295.121094 384.011719 C 297.550781 384.011719 299.519531 382.046875 299.519531 379.617188 C 299.519531 377.1875 297.550781 375.21875 295.121094 375.21875 C 292.695312 375.21875 290.726562 377.1875 290.726562 379.617188 Z M 290.726562 379.617188 "/>
</g>
<mask id="mask5">
  <g filter="url(#alpha)">
<rect x="0" y="0" width="912" height="624" style="fill:rgb(0%,0%,0%);fill-opacity:0.988235;stroke:none;"/>
  </g>
</mask>
<clipPath id="clip6">
  <rect x="0" y="0" width="912" height="624"/>
</clipPath>
<g id="surface20" clip-path="url(#clip6)">
<path style=" stroke:none;fill-rule:nonzero;fill:rgb(100%,100%,100%);fill-opacity:1;" d="M 272.46875 382.515625 L 275.519531 372.167969 C 275.894531 370.898438 276.914062 369.945312 278.183594 369.679688 C 287.746094 367.6875 313.90625 367.261719 314.171875 367.257812 L 314.152344 366.089844 C 313.074219 366.105469 287.613281 366.519531 277.945312 368.535156 C 276.253906 368.890625 274.894531 370.15625 274.398438 371.839844 L 271.347656 382.183594 Z M 272.46875 382.515625 "/>
</g>
<linearGradient id="linear0" gradientUnits="userSpaceOnUse" x1="741.489014" y1="591.843994" x2="687.677979" y2="579.934021" gradientTransform="matrix(0.75,0,0,0.75,0,0)">
<stop offset="0" style="stop-color:rgb(99.607843%,73.333333%,72.941176%);stop-opacity:1;"/>
<stop offset="1" style="stop-color:rgb(100%,57.254902%,55.686275%);stop-opacity:1;"/>
</linearGradient>
</defs>
<g id="surface1">
<path style=" stroke:none;fill-rule:nonzero;fill:rgb(94.901961%,94.901961%,94.901961%);fill-opacity:1;" d="M 709.339844 520.59375 C 697.382812 533.183594 686.070312 541.300781 677.128906 547.714844 C 572.054688 623.105469 447.722656 601.128906 421.296875 595.761719 C 382.277344 587.835938 306.851562 572.519531 252.320312 508.390625 C 169.820312 411.371094 182.667969 258.519531 246.660156 157.621094 C 258.367188 139.164062 320.195312 36.730469 445.867188 20.300781 C 521.921875 10.359375 610.578125 30.410156 674.78125 84.199219 C 809.542969 197.109375 799.949219 425.199219 709.339844 520.59375 Z M 709.339844 520.59375 "/>
<path style=" stroke:none;fill-rule:nonzero;fill:rgb(82.745099%,84.705883%,88.627452%);fill-opacity:1;" d="M 607.273438 464.773438 C 695.324219 376.726562 695.324219 233.972656 607.273438 145.925781 C 519.226562 57.875 376.472656 57.875 288.425781 145.925781 C 200.375 233.972656 200.375 376.726562 288.425781 464.773438 C 376.472656 552.824219 519.226562 552.824219 607.273438 464.773438 Z M 607.273438 464.773438 "/>
<path style=" stroke:none;fill-rule:nonzero;fill:rgb(31.372549%,43.137255%,24.705882%);fill-opacity:1;" d="M 447.855469 497.773438 C 554.128906 497.773438 640.277344 411.621094 640.277344 305.351562 C 640.277344 199.078125 554.128906 112.925781 447.855469 112.925781 C 341.582031 112.925781 255.429688 199.078125 255.429688 305.351562 C 255.429688 411.621094 341.582031 497.773438 447.855469 497.773438 Z M 447.855469 497.773438 "/>
<path style=" stroke:none;fill-rule:nonzero;fill:rgb(100%,100%,100%);fill-opacity:1;" d="M 447.855469 507.414062 C 336.4375 507.414062 245.792969 416.769531 245.792969 305.351562 C 245.792969 193.933594 336.4375 103.289062 447.855469 103.289062 C 559.269531 103.289062 649.917969 193.933594 649.917969 305.351562 C 649.917969 416.769531 559.269531 507.414062 447.855469 507.414062 Z M 447.855469 112.925781 C 341.75 112.925781 255.429688 199.246094 255.429688 305.351562 C 255.429688 411.453125 341.75 497.773438 447.855469 497.773438 C 553.957031 497.773438 640.277344 411.453125 640.277344 305.351562 C 640.277344 199.246094 553.957031 112.925781 447.855469 112.925781 Z M 447.855469 112.925781 "/>
<path style=" stroke:none;fill-rule:nonzero;fill:rgb(46.666667%,58.823529%,40.392157%);fill-opacity:1;" d="M 447.855469 422.660156 C 512.644531 422.660156 565.164062 370.140625 565.164062 305.351562 C 565.164062 240.5625 512.644531 188.039062 447.855469 188.039062 C 383.066406 188.039062 330.542969 240.5625 330.542969 305.351562 C 330.542969 370.140625 383.066406 422.660156 447.855469 422.660156 Z M 447.855469 422.660156 "/>
<path style=" stroke:none;fill-rule:nonzero;fill:rgb(100%,100%,100%);fill-opacity:1;" d="M 447.855469 432.300781 C 377.855469 432.300781 320.90625 375.347656 320.90625 305.351562 C 320.90625 235.351562 377.855469 178.402344 447.855469 178.402344 C 517.855469 178.402344 574.804688 235.351562 574.804688 305.351562 C 574.804688 375.347656 517.855469 432.300781 447.855469 432.300781 Z M 447.855469 197.675781 C 388.484375 197.675781 340.179688 245.980469 340.179688 305.351562 C 340.179688 364.722656 388.484375 413.023438 447.855469 413.023438 C 507.226562 413.023438 555.527344 364.722656 555.527344 305.351562 C 555.527344 245.980469 507.226562 197.675781 447.855469 197.675781 Z M 447.855469 197.675781 "/>
<path style=" stroke:none;fill-rule:nonzero;fill:rgb(71.372549%,30.980392%,16.862745%);fill-opacity:1;" d="M 447.855469 350.800781 C 472.957031 350.800781 493.304688 330.449219 493.304688 305.351562 C 493.304688 280.25 472.957031 259.898438 447.855469 259.898438 C 422.753906 259.898438 402.40625 280.25 402.40625 305.351562 C 402.40625 330.449219 422.753906 350.800781 447.855469 350.800781 Z M 447.855469 350.800781 "/>
<path style=" stroke:none;fill-rule:nonzero;fill:rgb(100%,100%,100%);fill-opacity:1;" d="M 447.855469 360.4375 C 417.480469 360.4375 392.765625 335.726562 392.765625 305.351562 C 392.765625 274.972656 417.480469 250.261719 447.855469 250.261719 C 478.230469 250.261719 502.941406 274.972656 502.941406 305.351562 C 502.941406 335.726562 478.230469 360.4375 447.855469 360.4375 Z M 447.855469 269.539062 C 428.109375 269.539062 412.042969 285.601562 412.042969 305.351562 C 412.042969 325.097656 428.109375 341.164062 447.855469 341.164062 C 467.601562 341.164062 483.667969 325.097656 483.667969 305.351562 C 483.667969 285.601562 467.601562 269.539062 447.855469 269.539062 Z M 447.855469 269.539062 "/>
<path style=" stroke:none;fill-rule:nonzero;fill:rgb(23.137255%,27.058825%,35.294119%);fill-opacity:1;" d="M 662.988281 90.800781 L 667.773438 95.585938 L 486.496094 276.863281 L 481.710938 272.074219 Z M 662.988281 90.800781 "/>
<path style=" stroke:none;fill-rule:nonzero;fill:rgb(8.235294%,10.588235%,15.294118%);fill-opacity:1;" d="M 485.101562 260.523438 C 487.847656 257.777344 500.792969 270.726562 498.046875 273.472656 L 450.027344 311.222656 C 448.253906 312.617188 445.953125 310.320312 447.347656 308.546875 Z M 485.101562 260.523438 "/>
<path style=" stroke:none;fill-rule:nonzero;fill:rgb(71.372551%,30.980393%,16.862746%);fill-opacity:1;" d="M 667.671875 95.691406 L 692.058594 98.113281 L 658.578125 131.59375 C 647.609375 142.5625 632.296875 148.03125 616.863281 146.5 Z M 667.671875 95.691406 "/>
<path style=" stroke:none;fill-rule:nonzero;fill:rgb(71.372551%,30.980393%,16.862746%);fill-opacity:1;" d="M 662.882812 90.902344 L 660.460938 66.515625 L 626.980469 99.996094 C 616.011719 110.964844 610.539062 126.273438 612.074219 141.710938 Z M 662.882812 90.902344 "/>
<use xlink:href="#surface5" mask="url(#mask0)"/>
<use xlink:href="#surface8" mask="url(#mask1)"/>
<path style=" stroke:none;fill-rule:nonzero;fill:rgb(71.372551%,30.980393%,16.862746%);fill-opacity:1;" d="M 328.371094 87.113281 C 328.300781 86.773438 328.023438 86.515625 327.675781 86.472656 L 317.832031 85.214844 C 315.878906 81.011719 313.242188 77.089844 309.953125 73.636719 L 312.390625 64.023438 C 312.476562 63.683594 312.339844 63.332031 312.046875 63.140625 L 302.09375 56.613281 C 301.804688 56.421875 301.421875 56.4375 301.148438 56.648438 L 293.304688 62.71875 C 288.824219 61.082031 284.175781 60.226562 279.542969 60.109375 L 274.464844 51.585938 C 274.285156 51.285156 273.9375 51.132812 273.597656 51.203125 L 261.945312 53.628906 C 261.605469 53.699219 261.347656 53.976562 261.300781 54.320312 L 260.046875 64.164062 C 255.84375 66.121094 251.921875 68.757812 248.464844 72.042969 L 238.851562 69.605469 C 238.515625 69.523438 238.160156 69.660156 237.96875 69.949219 L 231.441406 79.90625 C 231.253906 80.195312 231.269531 80.574219 231.480469 80.851562 L 237.546875 88.695312 C 235.910156 93.175781 235.058594 97.824219 234.941406 102.457031 L 226.414062 107.535156 C 226.117188 107.710938 225.960938 108.058594 226.035156 108.398438 L 228.457031 120.054688 C 228.527344 120.394531 228.808594 120.652344 229.152344 120.695312 L 238.996094 121.953125 C 240.949219 126.15625 243.585938 130.078125 246.875 133.53125 L 244.4375 143.148438 C 244.351562 143.484375 244.492188 143.839844 244.78125 144.027344 L 254.734375 150.554688 C 255.027344 150.746094 255.40625 150.730469 255.683594 150.519531 L 263.527344 144.449219 C 268.003906 146.085938 272.652344 146.941406 277.285156 147.058594 L 282.363281 155.585938 C 282.542969 155.882812 282.890625 156.035156 283.230469 155.964844 L 294.882812 153.542969 C 295.226562 153.46875 295.484375 153.191406 295.527344 152.847656 L 296.785156 143.003906 C 300.984375 141.046875 304.90625 138.410156 308.363281 135.125 L 317.976562 137.5625 C 318.3125 137.648438 318.667969 137.507812 318.859375 137.21875 L 325.386719 127.261719 C 325.574219 126.972656 325.5625 126.59375 325.347656 126.316406 L 319.28125 118.472656 C 320.917969 113.992188 321.773438 109.34375 321.886719 104.710938 L 330.414062 99.636719 C 330.714844 99.457031 330.867188 99.109375 330.796875 98.769531 Z M 328.371094 87.113281 "/>
<path style=" stroke:none;fill-rule:nonzero;fill:rgb(74.117649%,81.568629%,98.431373%);fill-opacity:1;" d="M 286.507812 112.394531 C 281.652344 116.859375 274.070312 116.539062 269.605469 111.679688 C 267.441406 109.328125 266.324219 106.273438 266.460938 103.078125 C 266.59375 99.886719 267.964844 96.9375 270.316406 94.773438 C 275.175781 90.308594 282.757812 90.628906 287.222656 95.488281 C 291.285156 99.910156 291.386719 106.582031 287.714844 111.113281 C 287.351562 111.5625 286.949219 111.992188 286.507812 112.394531 Z M 269.25 103.195312 C 269.144531 105.644531 270 107.988281 271.660156 109.792969 C 275.082031 113.515625 280.898438 113.761719 284.621094 110.339844 C 288.347656 106.917969 288.589844 101.101562 285.167969 97.378906 C 281.746094 93.652344 275.929688 93.40625 272.207031 96.828125 C 271.867188 97.140625 271.558594 97.472656 271.273438 97.820312 C 270.042969 99.339844 269.332031 101.207031 269.25 103.195312 Z M 269.25 103.195312 "/>
<path style=" stroke:none;fill-rule:nonzero;fill:rgb(100%,100%,100%);fill-opacity:1;" d="M 300.984375 122.1875 C 301.613281 121.410156 302.210938 120.59375 302.765625 119.746094 C 302.941406 119.480469 303.113281 119.207031 303.28125 118.9375 C 304.101562 117.589844 304.8125 116.183594 305.40625 114.734375 C 305.414062 114.714844 305.425781 114.691406 305.433594 114.671875 C 305.453125 114.617188 305.476562 114.5625 305.5 114.503906 C 305.542969 114.394531 305.585938 114.285156 305.628906 114.175781 C 305.742188 113.886719 305.648438 113.566406 305.417969 113.382812 C 305.363281 113.335938 305.296875 113.300781 305.230469 113.273438 C 304.867188 113.132812 304.464844 113.316406 304.328125 113.671875 C 303.613281 115.523438 302.695312 117.308594 301.597656 118.980469 C 296.15625 127.285156 287.019531 131.746094 277.757812 131.628906 C 272.605469 131.5625 267.414062 130.078125 262.796875 127.050781 C 261.988281 126.519531 261.210938 125.953125 260.46875 125.351562 C 255.472656 121.300781 252.050781 115.703125 250.726562 109.320312 C 249.199219 101.992188 250.621094 94.507812 254.726562 88.25 C 263.203125 75.320312 280.605469 71.707031 293.527344 80.179688 C 294.324219 80.703125 295.09375 81.261719 295.828125 81.859375 C 299.011719 84.441406 301.597656 87.695312 303.386719 91.390625 C 303.433594 91.484375 303.496094 91.566406 303.574219 91.628906 C 303.777344 91.792969 304.066406 91.835938 304.316406 91.714844 C 304.664062 91.546875 304.808594 91.128906 304.640625 90.78125 C 302.765625 86.902344 300.050781 83.488281 296.707031 80.773438 C 295.9375 80.148438 295.128906 79.5625 294.292969 79.011719 C 280.726562 70.117188 262.453125 73.921875 253.558594 87.484375 C 249.25 94.054688 247.757812 101.914062 249.359375 109.605469 C 250.753906 116.304688 254.34375 122.179688 259.585938 126.433594 C 260.367188 127.066406 261.179688 127.660156 262.03125 128.21875 C 268.601562 132.527344 276.460938 134.019531 284.152344 132.417969 C 290.855469 131.027344 296.730469 127.433594 300.984375 122.1875 Z M 300.984375 122.1875 "/>
<use xlink:href="#surface11" mask="url(#mask2)"/>
<use xlink:href="#surface14" mask="url(#mask3)"/>
<path style=" stroke:none;fill-rule:nonzero;fill:rgb(71.372551%,30.980393%,16.862746%);fill-opacity:1;" d="M 396.40625 53.648438 C 396.355469 53.417969 396.171875 53.246094 395.941406 53.21875 L 389.351562 52.375 C 388.046875 49.5625 386.28125 46.941406 384.082031 44.628906 L 385.710938 38.195312 C 385.769531 37.96875 385.675781 37.734375 385.480469 37.605469 L 378.820312 33.238281 C 378.625 33.109375 378.371094 33.121094 378.1875 33.261719 L 372.9375 37.324219 C 369.941406 36.226562 366.832031 35.65625 363.730469 35.578125 L 360.332031 29.871094 C 360.214844 29.671875 359.980469 29.570312 359.753906 29.617188 L 351.953125 31.238281 C 351.726562 31.285156 351.554688 31.472656 351.523438 31.703125 L 350.683594 38.289062 C 347.871094 39.597656 345.246094 41.363281 342.933594 43.5625 L 336.503906 41.933594 C 336.277344 41.875 336.039062 41.96875 335.914062 42.160156 L 331.546875 48.824219 C 331.417969 49.019531 331.425781 49.273438 331.570312 49.457031 L 335.628906 54.707031 C 334.535156 57.703125 333.960938 60.8125 333.886719 63.914062 L 328.179688 67.3125 C 327.980469 67.429688 327.875 67.664062 327.925781 67.890625 L 329.546875 75.6875 C 329.59375 75.917969 329.78125 76.089844 330.011719 76.117188 L 336.597656 76.960938 C 337.90625 79.773438 339.671875 82.398438 341.871094 84.707031 L 340.238281 91.140625 C 340.183594 91.367188 340.273438 91.605469 340.46875 91.730469 L 347.128906 96.101562 C 347.324219 96.226562 347.578125 96.21875 347.765625 96.074219 L 353.011719 92.015625 C 356.011719 93.109375 359.121094 93.683594 362.222656 93.757812 L 365.617188 99.464844 C 365.738281 99.664062 365.96875 99.765625 366.199219 99.71875 L 373.996094 98.097656 C 374.222656 98.050781 374.398438 97.863281 374.425781 97.632812 L 375.269531 91.046875 C 378.078125 89.738281 380.703125 87.972656 383.015625 85.773438 L 389.449219 87.402344 C 389.675781 87.460938 389.910156 87.371094 390.039062 87.175781 L 394.40625 80.515625 C 394.535156 80.320312 394.523438 80.066406 394.382812 79.882812 L 390.320312 74.632812 C 391.414062 71.632812 391.988281 68.523438 392.066406 65.421875 L 397.773438 62.027344 C 397.972656 61.90625 398.074219 61.675781 398.027344 61.445312 Z M 396.40625 53.648438 "/>
<path style=" stroke:none;fill-rule:nonzero;fill:rgb(74.117649%,81.568629%,98.431373%);fill-opacity:1;" d="M 368.492188 70.667969 C 366.886719 72.144531 364.808594 72.902344 362.632812 72.8125 C 360.457031 72.71875 358.449219 71.785156 356.976562 70.183594 C 353.933594 66.875 354.152344 61.71875 357.460938 58.667969 C 360.769531 55.625 365.9375 55.84375 368.976562 59.152344 C 370.449219 60.757812 371.210938 62.835938 371.117188 65.011719 C 371.042969 66.78125 370.414062 68.4375 369.316406 69.789062 C 369.066406 70.097656 368.789062 70.394531 368.492188 70.667969 Z M 358.5625 68.722656 C 359.644531 69.902344 361.121094 70.589844 362.722656 70.660156 C 364.324219 70.726562 365.855469 70.167969 367.03125 69.082031 C 368.210938 67.996094 368.898438 66.519531 368.964844 64.921875 C 369.035156 63.320312 368.472656 61.789062 367.390625 60.613281 C 365.152344 58.179688 361.355469 58.015625 358.917969 60.253906 C 358.699219 60.457031 358.5 60.667969 358.316406 60.894531 C 356.476562 63.164062 356.527344 66.511719 358.5625 68.722656 Z M 358.5625 68.722656 "/>
<path style=" stroke:none;fill-rule:nonzero;fill:rgb(100%,100%,100%);fill-opacity:1;" d="M 378.566406 77.484375 C 378.992188 76.953125 379.398438 76.398438 379.78125 75.816406 C 380.539062 74.664062 381.179688 73.429688 381.6875 72.148438 C 381.710938 72.089844 381.734375 72.03125 381.757812 71.972656 C 381.929688 71.527344 381.78125 71.035156 381.429688 70.75 C 381.34375 70.679688 381.246094 70.625 381.136719 70.582031 C 380.582031 70.367188 379.960938 70.644531 379.746094 71.199219 C 379.285156 72.398438 378.6875 73.554688 377.980469 74.636719 C 377.941406 74.695312 377.902344 74.753906 377.863281 74.8125 C 376.160156 77.351562 373.894531 79.371094 371.253906 80.753906 C 369.824219 81.503906 368.28125 82.066406 366.664062 82.417969 C 366.648438 82.421875 366.636719 82.421875 366.625 82.425781 C 366.582031 82.433594 366.542969 82.441406 366.5 82.453125 C 361.757812 83.4375 356.914062 82.519531 352.859375 79.859375 C 352.335938 79.515625 351.832031 79.148438 351.351562 78.761719 C 348.121094 76.136719 345.90625 72.515625 345.046875 68.382812 C 344.058594 63.636719 344.980469 58.792969 347.636719 54.742188 C 350.292969 50.691406 354.367188 47.914062 359.113281 46.925781 C 363.859375 45.941406 368.703125 46.859375 372.753906 49.515625 C 373.269531 49.855469 373.769531 50.21875 374.242188 50.605469 C 376.304688 52.277344 377.980469 54.382812 379.136719 56.773438 C 379.207031 56.921875 379.308594 57.046875 379.425781 57.140625 C 379.742188 57.394531 380.1875 57.464844 380.574219 57.273438 C 381.109375 57.015625 381.335938 56.371094 381.074219 55.835938 C 379.78125 53.15625 377.910156 50.800781 375.601562 48.929688 C 375.070312 48.5 374.515625 48.09375 373.9375 47.714844 C 369.402344 44.742188 363.984375 43.710938 358.675781 44.816406 C 353.367188 45.921875 348.804688 49.019531 345.835938 53.558594 C 342.859375 58.09375 341.832031 63.511719 342.9375 68.820312 C 343.898438 73.441406 346.375 77.496094 349.992188 80.429688 C 350.527344 80.867188 351.089844 81.277344 351.679688 81.664062 C 360.457031 87.417969 372.089844 85.46875 378.566406 77.484375 Z M 378.566406 77.484375 "/>
<path style=" stroke:none;fill-rule:nonzero;fill:rgb(23.137255%,27.058825%,35.294119%);fill-opacity:1;" d="M 270.070312 586.441406 C 270.070312 586.441406 268.855469 592.945312 268.230469 599.390625 C 267.984375 601.910156 269.910156 604.117188 272.4375 604.246094 C 281.023438 604.6875 299.390625 605.558594 305.988281 605.328125 C 306.980469 605.292969 307.640625 604.285156 307.28125 603.359375 C 306.980469 602.582031 306.394531 601.953125 305.640625 601.597656 L 275.421875 587.355469 Z M 270.070312 586.441406 "/>
<path style=" stroke:none;fill-rule:nonzero;fill:rgb(97.254902%,76.078433%,64.705884%);fill-opacity:1;" d="M 269.164062 582.601562 L 270.015625 590.40625 C 270.015625 590.40625 275.308594 592.929688 278.964844 590.179688 L 276.847656 581.472656 Z M 269.164062 582.601562 "/>
<path style=" stroke:none;fill-rule:nonzero;fill:rgb(23.137255%,27.058825%,35.294119%);fill-opacity:1;" d="M 271.257812 436.0625 C 270.835938 438.09375 268.144531 537.621094 278.359375 582.332031 C 278.523438 583.0625 278.148438 583.808594 277.453125 584.085938 C 275.816406 584.738281 272.605469 585.671875 268.769531 585.765625 C 267.582031 585.792969 266.523438 585.011719 266.203125 583.867188 C 263.257812 573.488281 249.179688 521.492188 247.75 471.9375 C 246.152344 416.566406 247.769531 470.054688 247.769531 470.054688 L 249.339844 435.851562 Z M 271.257812 436.0625 "/>
<path style=" stroke:none;fill-rule:nonzero;fill:rgb(23.137255%,27.058825%,35.294119%);fill-opacity:1;" d="M 235.121094 589.507812 C 235.121094 589.507812 233.257812 592.777344 231.402344 601.503906 C 231.066406 603.078125 232.152344 604.601562 233.753906 604.773438 C 236.589844 605.078125 240.953125 605.480469 244.453125 605.488281 C 246.0625 605.492188 247.335938 604.101562 247.15625 602.5 C 246.800781 599.304688 245.640625 594.058594 241.953125 589.941406 Z M 235.121094 589.507812 "/>
<path style=" stroke:none;fill-rule:nonzero;fill:rgb(97.254902%,76.078433%,64.705884%);fill-opacity:1;" d="M 233.609375 579.464844 L 235.65625 591.273438 C 235.65625 591.273438 237.777344 592.882812 242.015625 591.769531 L 241.105469 579.078125 Z M 233.609375 579.464844 "/>
<path style=" stroke:none;fill-rule:nonzero;fill:rgb(23.137255%,27.058825%,35.294119%);fill-opacity:1;" d="M 229.113281 438.714844 C 219.910156 491.152344 229.761719 568.542969 233.1875 583.703125 C 233.398438 584.632812 234.140625 585.347656 235.078125 585.511719 C 236.667969 585.792969 239.289062 586.035156 241.886719 585.304688 C 242.78125 585.054688 243.414062 584.257812 243.460938 583.332031 C 244.054688 571.105469 243.910156 496.019531 252.300781 466.421875 C 252.726562 464.921875 253.65625 463.621094 254.933594 462.730469 L 270.78125 451.691406 L 272.160156 433.617188 Z M 229.113281 438.714844 "/>
<path style=" stroke:none;fill-rule:nonzero;fill:rgb(71.372551%,30.980393%,16.862746%);fill-opacity:1;" d="M 285.515625 339.730469 C 259.4375 339.050781 230.59375 346.054688 230.59375 346.054688 C 222.386719 391.339844 228.300781 443.722656 228.300781 443.722656 C 248.441406 449.207031 271.300781 440.894531 271.300781 440.894531 C 274.835938 421.964844 291 368.757812 291 368.757812 C 303.757812 367.296875 314.292969 363.722656 322.980469 358.941406 C 316.460938 351.238281 313.445312 341.480469 312.148438 335.71875 C 302.902344 338.496094 293.558594 339.9375 285.515625 339.730469 Z M 285.515625 339.730469 "/>
<path style=" stroke:none;fill-rule:nonzero;fill:rgb(97.254902%,76.078433%,64.705884%);fill-opacity:1;" d="M 362.914062 302.050781 C 360.382812 298.929688 357.125 300.363281 357.125 300.363281 C 353.132812 316.539062 332.886719 329.492188 312.148438 335.71875 C 313.445312 341.480469 316.460938 351.238281 322.980469 358.941406 C 357.476562 339.980469 362.914062 302.050781 362.914062 302.050781 Z M 362.914062 302.050781 "/>
<path style=" stroke:none;fill-rule:nonzero;fill:rgb(97.254902%,76.078433%,64.705884%);fill-opacity:1;" d="M 362.285156 302.832031 C 362.546875 303.6875 359.429688 304.953125 357.632812 301.453125 C 357.585938 299.78125 356.640625 292.613281 357.648438 291.261719 C 363.035156 284.066406 373.429688 275.078125 373.429688 275.078125 C 375.15625 276.816406 373.703125 278.488281 373.703125 278.488281 L 368.652344 283.648438 C 369.683594 285.550781 370.941406 287.15625 371.519531 289.449219 C 371.953125 291.183594 371.660156 293.03125 370.769531 294.597656 C 369.878906 296.171875 368.660156 298.214844 367.511719 299.8125 C 365.339844 302.839844 362.285156 302.832031 362.285156 302.832031 Z M 362.285156 302.832031 "/>
<path style=" stroke:none;fill-rule:nonzero;fill:rgb(97.254902%,76.078433%,64.705884%);fill-opacity:1;" d="M 366.433594 287.007812 L 361.84375 290.828125 L 360.375 294.660156 L 364.394531 299.207031 C 364.394531 299.207031 365.832031 291.589844 366.863281 289.945312 C 367.894531 288.304688 367.375 287.5 366.433594 287.007812 Z M 366.433594 287.007812 "/>
<path style=" stroke:none;fill-rule:nonzero;fill:rgb(71.372551%,30.980393%,16.862746%);fill-opacity:1;" d="M 240.355469 371.402344 L 230.59375 346.054688 C 230.59375 346.054688 206.074219 362.371094 201.867188 383.320312 C 206.46875 383.703125 214.832031 384.980469 222.992188 389.199219 C 224.886719 379.304688 240.355469 371.402344 240.355469 371.402344 Z M 240.355469 371.402344 "/>
<path style=" stroke:none;fill-rule:nonzero;fill:rgb(97.254902%,76.078433%,64.705884%);fill-opacity:1;" d="M 261.417969 395.367188 C 261.417969 395.367188 233.917969 410.5625 224.816406 397.277344 C 222.925781 394.519531 222.496094 391.789062 222.992188 389.199219 C 214.832031 384.980469 206.46875 383.703125 201.867188 383.320312 C 200.601562 389.636719 201.175781 396.371094 204.828125 403.207031 C 220.710938 432.929688 264.972656 402.144531 264.972656 402.144531 Z M 261.417969 395.367188 "/>
<path style=" stroke:none;fill-rule:nonzero;fill:rgb(97.254902%,76.078433%,64.705884%);fill-opacity:1;" d="M 259.300781 318.304688 L 250.773438 342.222656 C 250.632812 342.621094 250.789062 343.0625 251.15625 343.269531 C 253.40625 344.539062 261.523438 348.234375 271.402344 342.101562 C 272.429688 341.460938 273.136719 340.410156 273.304688 339.210938 L 276.191406 318.464844 Z M 259.300781 318.304688 "/>
<path style=" stroke:none;fill-rule:nonzero;fill:rgb(97.254902%,76.078433%,64.705884%);fill-opacity:1;" d="M 277.566406 296.253906 C 277.566406 296.253906 286.515625 313.496094 285.28125 320.410156 C 284.046875 327.328125 272.757812 326.726562 262.949219 321.003906 L 256.238281 302.417969 Z M 277.566406 296.253906 "/>
<path style=" stroke:none;fill-rule:nonzero;fill:rgb(23.137255%,27.058825%,35.294119%);fill-opacity:1;" d="M 263.472656 311.910156 C 263.875 311.738281 264.027344 311.25 263.792969 310.878906 C 263.070312 309.757812 261.726562 307.46875 261.308594 305.472656 C 261.308594 305.472656 259.679688 304.410156 265.5 303.074219 C 271.320312 301.738281 280.003906 299.664062 281.871094 294.738281 C 283.691406 289.9375 279.144531 277.773438 271.613281 287.355469 C 271.324219 287.722656 270.769531 287.726562 270.492188 287.355469 C 269.285156 285.753906 266.113281 282.429688 261.640625 284.386719 C 257.457031 286.214844 256.960938 289.261719 257 290.800781 C 257.015625 291.253906 256.605469 291.601562 256.160156 291.511719 C 254.058594 291.089844 249.007812 290.699219 246.601562 295.859375 C 244.617188 300.113281 245.855469 302.542969 246.996094 303.734375 C 247.363281 304.121094 247.195312 304.753906 246.683594 304.902344 C 245.292969 305.3125 243.496094 306.46875 243.644531 309.714844 C 243.847656 314.203125 248.863281 313.855469 250.292969 313.664062 C 250.527344 313.632812 250.761719 313.714844 250.917969 313.890625 C 252.128906 315.257812 257.589844 321.058594 263.546875 321.808594 C 264.066406 321.875 264.46875 321.367188 264.304688 320.875 L 261.796875 313.34375 C 261.679688 312.992188 261.847656 312.613281 262.1875 312.464844 Z M 263.472656 311.910156 "/>
<path style=" stroke:none;fill-rule:nonzero;fill:rgb(97.254902%,76.078433%,64.705884%);fill-opacity:1;" d="M 264.5 312.988281 C 264.5 312.988281 258.054688 308.472656 257.546875 312.21875 C 257.035156 315.960938 263.335938 317.703125 266.480469 316.335938 Z M 264.5 312.988281 "/>
<path style=" stroke:none;fill-rule:nonzero;fill:rgb(23.137255%,27.058825%,35.294119%);fill-opacity:1;" d="M 255.796875 419.382812 L 270.777344 367.074219 C 270.945312 366.480469 271.453125 366.046875 272.066406 365.972656 C 274.78125 365.65625 282.644531 364.769531 291.722656 364 C 302.660156 363.074219 315.363281 362.328125 322.949219 362.964844 C 324.03125 363.054688 324.683594 364.195312 324.203125 365.167969 C 319.886719 373.898438 302.132812 409.417969 293.242188 421.050781 C 292.949219 421.4375 292.492188 421.664062 292.007812 421.660156 L 257.253906 421.335938 C 256.242188 421.324219 255.519531 420.355469 255.796875 419.382812 Z M 255.796875 419.382812 "/>
<path style=" stroke:none;fill-rule:nonzero;fill:rgb(97.254902%,76.078433%,64.705884%);fill-opacity:1;" d="M 259.414062 406.746094 C 259.414062 406.746094 257.328125 398.164062 258.171875 395.121094 C 259.011719 392.078125 260.644531 388.164062 266.078125 389.035156 C 271.515625 389.902344 277.925781 392.191406 277.925781 392.191406 C 277.925781 392.191406 277.601562 396.15625 273.472656 394.878906 L 276.035156 396.859375 C 276.035156 396.859375 275.667969 400.035156 272.179688 398.339844 L 274.5625 400.96875 C 274.5625 400.96875 273.0625 403.574219 270.496094 401.902344 C 267.925781 400.230469 266.695312 407.777344 259.414062 406.746094 Z M 259.414062 406.746094 "/>
<use xlink:href="#surface17" mask="url(#mask4)"/>
<use xlink:href="#surface20" mask="url(#mask5)"/>
<path style=" stroke:none;fill-rule:nonzero;fill:rgb(97.254902%,76.078433%,64.705884%);fill-opacity:1;" d="M 661.773438 304.71875 C 662.191406 303.925781 663.367188 304.050781 663.605469 304.914062 C 664.492188 308.113281 666.644531 313.691406 671.15625 315.671875 C 671.382812 315.773438 671.597656 315.875 671.804688 315.976562 C 672.011719 315.363281 672.011719 314.648438 671.523438 313.898438 C 670.121094 311.757812 672.652344 308.828125 672.652344 308.828125 C 672.652344 308.828125 672.820312 311.40625 674.78125 313.03125 C 676.46875 314.429688 677.277344 317.539062 676.125 320.09375 C 673.683594 329.578125 670.027344 342.121094 684.269531 351.285156 C 698.511719 360.449219 718.566406 333.992188 718.566406 333.992188 L 708.613281 365.550781 C 708.613281 365.550781 693.25 376.886719 675.375 360.945312 C 657.503906 345 669.351562 321.800781 669.351562 321.800781 C 669.351562 321.800781 655.71875 316.300781 661.773438 304.71875 Z M 661.773438 304.71875 "/>
<path style=" stroke:none;fill-rule:nonzero;fill:rgb(23.137255%,27.058825%,35.294119%);fill-opacity:1;" d="M 721.0625 287.621094 C 721.0625 287.621094 716.9375 269.113281 738.136719 274.015625 C 738.136719 274.015625 748.429688 272.332031 748.953125 282.046875 C 748.953125 282.046875 755.585938 286.417969 750.726562 294.824219 C 750.726562 294.824219 770.445312 287.207031 779.03125 304.488281 C 787.621094 321.769531 779.730469 331.277344 771.449219 333.753906 C 771.449219 333.753906 778.15625 337.121094 774.984375 344.722656 C 771.808594 352.324219 755.730469 357.683594 746.238281 348.441406 C 746.238281 348.441406 719.214844 352.011719 719.757812 332.925781 C 719.757812 332.925781 707.191406 324.808594 720.390625 309.035156 C 733.589844 293.261719 721.0625 287.621094 721.0625 287.621094 Z M 721.0625 287.621094 "/>
<path style=" stroke:none;fill-rule:nonzero;fill:rgb(31.37255%,43.137255%,24.705882%);fill-opacity:1;" d="M 719.898438 330.523438 C 724.160156 329.246094 736.5625 326.890625 748.363281 337.777344 C 750.359375 339.625 751.175781 342.429688 750.464844 345.058594 C 747.296875 356.726562 738.9375 391.195312 746.269531 406.109375 C 746.269531 406.109375 733.347656 420.351562 719.253906 408.871094 C 719.253906 408.871094 712.929688 381.308594 704.648438 369.210938 C 698.925781 360.855469 713.765625 337.839844 717.519531 332.28125 C 718.085938 331.4375 718.925781 330.816406 719.898438 330.523438 Z M 719.898438 330.523438 "/>
<path style=" stroke:none;fill-rule:nonzero;fill:rgb(97.254902%,76.078433%,64.705884%);fill-opacity:1;" d="M 731.660156 307.34375 C 731.660156 307.34375 737.960938 325.167969 738.4375 333.027344 C 738.4375 333.027344 731.472656 336.195312 724.910156 330.851562 C 724.910156 330.851562 724.222656 313.050781 723.226562 309.863281 Z M 731.660156 307.34375 "/>
<path style=" stroke:none;fill-rule:nonzero;fill:rgb(97.254902%,76.078433%,64.705884%);fill-opacity:1;" d="M 722.910156 283.042969 C 722.910156 283.042969 706.429688 306.105469 716.28125 312.804688 C 726.132812 319.503906 737.863281 303.117188 737.863281 303.117188 C 737.863281 303.117188 741.6875 290.492188 737.6875 286.210938 C 733.691406 281.929688 722.910156 283.042969 722.910156 283.042969 Z M 722.910156 283.042969 "/>
<path style=" stroke:none;fill-rule:nonzero;fill:rgb(23.137255%,27.058825%,35.294119%);fill-opacity:1;" d="M 730.539062 277.535156 C 730.539062 277.535156 722.96875 279.328125 721.90625 282.753906 C 720.84375 286.179688 732.640625 289.355469 735.949219 289.507812 L 738.609375 303.332031 C 738.609375 303.332031 746.484375 290.328125 743.367188 282.820312 C 740.246094 275.308594 730.539062 277.535156 730.539062 277.535156 Z M 730.539062 277.535156 "/>
<path style=" stroke:none;fill-rule:nonzero;fill:rgb(97.254902%,76.078433%,64.705884%);fill-opacity:1;" d="M 734.667969 301.417969 C 734.667969 301.417969 741.082031 293.988281 743.632812 298.832031 C 746.1875 303.675781 737.859375 307.3125 734.980469 304.933594 Z M 734.667969 301.417969 "/>
<path style=" stroke:none;fill-rule:nonzero;fill:rgb(97.254902%,76.078433%,64.705884%);fill-opacity:1;" d="M 702.800781 466.742188 C 702.847656 467.996094 700.652344 477.917969 699.457031 483.214844 C 698.972656 485.34375 699.308594 487.574219 700.394531 489.46875 L 741.800781 559.15625 C 742.300781 560 742.667969 560.914062 742.886719 561.871094 C 743.648438 565.140625 745.21875 573.152344 744.398438 580.445312 L 742.257812 584.894531 L 751.523438 582.792969 L 753.539062 557.914062 L 750.914062 556.3125 C 748.648438 554.933594 746.882812 552.867188 745.875 550.414062 C 742.128906 541.320312 732.832031 518.167969 730.433594 506.882812 C 727.710938 494.0625 713.472656 483.648438 713.472656 483.648438 L 715.972656 477.734375 Z M 702.800781 466.742188 "/>
<path style=" stroke:none;fill-rule:nonzero;fill:rgb(23.137255%,27.058825%,35.294119%);fill-opacity:1;" d="M 761.8125 574.230469 C 761.8125 574.230469 756.808594 566.296875 756.226562 563.210938 C 755.632812 560.125 753.996094 554.671875 750.914062 556.3125 C 750.914062 556.3125 749.460938 571.3125 749.960938 577.171875 C 750.464844 583.03125 743.335938 582.84375 743.335938 582.84375 C 743.335938 582.84375 741.371094 583.117188 739.933594 584.558594 C 738.941406 585.550781 739.652344 587.273438 741.050781 587.363281 C 743.382812 587.511719 747.089844 587.550781 750.976562 586.800781 C 752.339844 586.539062 753.34375 585.382812 753.425781 584 L 754.453125 566.738281 L 760.761719 574.707031 Z M 761.8125 574.230469 "/>
<path style=" stroke:none;fill-rule:nonzero;fill:rgb(97.254902%,76.078433%,64.705884%);fill-opacity:1;" d="M 727.535156 477.84375 C 727.535156 477.84375 728.996094 540.179688 729.195312 549.035156 C 729.390625 557.886719 727.796875 577.507812 718.921875 583.371094 L 722.78125 586.230469 C 722.78125 586.230469 727.609375 582.128906 732.324219 574.234375 C 737.621094 565.367188 739.222656 563.746094 739.222656 563.746094 L 737.464844 560.144531 C 736.695312 558.570312 736.46875 556.789062 736.824219 555.070312 C 738.738281 545.785156 745.136719 514.910156 746.882812 508.261719 C 748.941406 500.414062 749.089844 489.929688 741.921875 481.15625 C 734.753906 472.382812 727.535156 477.84375 727.535156 477.84375 Z M 727.535156 477.84375 "/>
<path style=" stroke:none;fill-rule:nonzero;fill:rgb(23.137255%,27.058825%,35.294119%);fill-opacity:1;" d="M 735.730469 589.039062 C 736.007812 589.042969 736.242188 588.847656 736.28125 588.574219 C 736.574219 586.496094 737.804688 578.164062 738.808594 576.007812 C 739.960938 573.535156 743.726562 563.136719 738.808594 562.253906 C 738.808594 562.253906 726.578125 580.121094 724.230469 582.53125 C 721.882812 584.941406 718.921875 583.371094 718.921875 583.371094 C 718.921875 583.371094 716.632812 584.046875 714.90625 586.253906 C 714.085938 587.300781 714.851562 588.839844 716.183594 588.855469 L 724.421875 588.933594 C 726.8125 588.957031 728.964844 587.503906 729.855469 585.28125 C 731.304688 581.660156 733.796875 576.347656 736.699219 573.992188 L 735.191406 588.433594 C 735.15625 588.757812 735.40625 589.039062 735.730469 589.039062 Z M 735.730469 589.039062 "/>
<path style=" stroke:none;fill-rule:nonzero;fill:rgb(31.37255%,43.137255%,24.705882%);fill-opacity:1;" d="M 717.304688 402.152344 C 717.304688 402.152344 719.160156 408.070312 716.308594 417.8125 L 698.617188 479.589844 C 698.339844 480.5625 698.863281 481.578125 699.8125 481.917969 C 705.105469 483.816406 722.5 489.1875 746.246094 487.550781 C 747.441406 487.46875 748.445312 486.621094 748.707031 485.449219 C 750.269531 478.40625 755.609375 454.378906 756.703125 449.441406 C 760.898438 430.628906 765.570312 410.339844 745 398.070312 C 735.519531 402.132812 726.675781 404.527344 717.304688 402.152344 Z M 717.304688 402.152344 "/>
<path style=" stroke:none;fill-rule:nonzero;fill:rgb(97.254902%,76.078433%,64.705884%);fill-opacity:1;" d="M 750.050781 340.105469 C 750.050781 340.105469 770.183594 356.832031 775.175781 379.691406 C 780.171875 402.546875 745.761719 404.976562 745.761719 404.976562 C 745.761719 404.976562 741.089844 399.761719 735.546875 401.621094 C 730 403.484375 735.117188 392.519531 741.605469 392.546875 C 748.09375 392.578125 745.085938 397.707031 754.265625 393.550781 C 763.207031 389.5 768.734375 376.972656 745.921875 357.988281 C 744.597656 356.886719 743.542969 355.484375 742.90625 353.882812 C 738.476562 342.726562 741.992188 335.414062 750.050781 340.105469 Z M 750.050781 340.105469 "/>
<path style=" stroke:none;fill-rule:nonzero;fill:rgb(49.019608%,59.215689%,95.686275%);fill-opacity:1;" d="M 624.097656 510.886719 L 616.917969 510.886719 L 616.917969 588.53125 L 624.097656 588.53125 Z M 624.097656 510.886719 "/>
<path style=" stroke:none;fill-rule:nonzero;fill:rgb(49.019608%,59.215689%,95.686275%);fill-opacity:1;" d="M 651.949219 590.027344 L 589.066406 590.027344 L 589.066406 585.875 C 589.066406 585.585938 589.296875 585.355469 589.585938 585.355469 L 651.429688 585.355469 C 651.714844 585.355469 651.949219 585.585938 651.949219 585.875 Z M 651.949219 590.027344 "/>
<path style=" stroke:none;fill-rule:nonzero;fill:rgb(49.019608%,59.215689%,95.686275%);fill-opacity:1;" d="M 663.839844 508.023438 C 663.839844 512.535156 660.148438 516.230469 655.632812 516.230469 L 588.019531 516.230469 C 583.507812 516.230469 579.816406 512.535156 579.816406 508.023438 L 579.816406 500.605469 C 579.816406 496.089844 583.507812 492.398438 588.019531 492.398438 L 655.632812 492.398438 C 660.148438 492.398438 663.839844 496.089844 663.839844 500.605469 Z M 663.839844 508.023438 "/>
<path style=" stroke:none;fill-rule:nonzero;fill:rgb(23.137255%,27.058825%,35.294119%);fill-opacity:1;" d="M 556.863281 564.953125 C 556.863281 564.953125 533.652344 574.949219 534.980469 585.410156 C 534.980469 585.410156 558.972656 580.808594 563.269531 573.953125 C 567.5625 567.09375 565.195312 563.121094 565.195312 563.121094 Z M 556.863281 564.953125 "/>
<path style=" stroke:none;fill-rule:nonzero;fill:rgb(97.254902%,76.078433%,64.705884%);fill-opacity:1;" d="M 562.546875 553.527344 L 563.726562 563.710938 C 563.902344 565.25 563.050781 566.765625 561.59375 567.289062 C 560.863281 567.554688 559.90625 567.734375 558.652344 567.742188 C 556.882812 567.75 555.3125 566.585938 554.839844 564.878906 L 552.558594 556.640625 Z M 562.546875 553.527344 "/>
<path style=" stroke:none;fill-rule:nonzero;fill:rgb(23.137255%,27.058825%,35.294119%);fill-opacity:1;" d="M 613.253906 475.40625 C 613.253906 475.40625 570.558594 473.433594 549.316406 485.820312 C 528.074219 498.207031 550.394531 557.667969 550.394531 557.667969 C 550.394531 557.667969 555.945312 558.859375 563.933594 554.589844 C 563.933594 554.589844 552.53125 511.0625 572.335938 503.492188 C 594.605469 494.976562 617.640625 497.050781 617.640625 497.050781 L 613.371094 476.75 Z M 613.253906 475.40625 "/>
<path style=" stroke:none;fill-rule:nonzero;fill:rgb(23.137255%,27.058825%,35.294119%);fill-opacity:1;" d="M 539.644531 580.820312 C 544.5 579.757812 558.894531 573.792969 561.082031 573.871094 C 563.269531 573.953125 566.367188 577.226562 566.367188 577.226562 C 566.367188 577.226562 566.898438 579.019531 565.335938 581.589844 C 561.625 584.480469 553.636719 589.792969 544.347656 590.375 C 537.515625 590.800781 533.402344 588.082031 531.050781 585.445312 C 533.109375 583.441406 536.414062 581.527344 539.644531 580.820312 Z M 539.644531 580.820312 "/>
<path style=" stroke:none;fill-rule:nonzero;fill:rgb(8.235294%,10.588235%,15.294118%);fill-opacity:1;" d="M 544.347656 590.375 C 553.636719 589.792969 561.625 584.484375 565.335938 581.589844 C 564.277344 583.328125 562.265625 585.421875 558.480469 587.558594 C 549.09375 592.863281 533.578125 592.089844 530.503906 590.894531 C 528.035156 589.941406 528.796875 587.636719 531.050781 585.445312 C 533.402344 588.082031 537.515625 590.800781 544.347656 590.375 Z M 544.347656 590.375 "/>
<path style=" stroke:none;fill-rule:nonzero;fill:rgb(97.254902%,76.078433%,64.705884%);fill-opacity:1;" d="M 571.460938 571.898438 C 571.144531 573.097656 567.746094 576.710938 565.777344 578.722656 C 564.84375 579.679688 563.488281 580.089844 562.183594 579.804688 C 561.351562 579.625 560.417969 579.339844 559.609375 578.902344 C 558.394531 578.242188 557.972656 576.699219 558.636719 575.484375 L 563.609375 566.445312 Z M 571.460938 571.898438 "/>
<path style=" stroke:none;fill-rule:nonzero;fill:rgb(23.137255%,27.058825%,35.294119%);fill-opacity:1;" d="M 655.5625 471.828125 C 655.5625 471.828125 659.289062 498.265625 648.511719 503.667969 C 637.738281 509.070312 614.105469 512.609375 605.964844 526.320312 C 597.828125 540.03125 583.207031 566.945312 569.902344 574.675781 C 569.902344 574.675781 562.304688 572.207031 560.085938 568.46875 C 560.085938 568.46875 575.875 526.957031 582.464844 516.867188 C 588.167969 508.128906 596.511719 495.539062 608.363281 490.09375 C 611.757812 488.535156 612.023438 484.9375 611.425781 481.25 L 610.335938 474.539062 Z M 655.5625 471.828125 "/>
<path style=" stroke:none;fill-rule:nonzero;fill:rgb(73.725492%,73.725492%,74.509805%);fill-opacity:1;" d="M 555.699219 441.859375 C 570.804688 446.171875 577.566406 403.660156 577.507812 402.625 L 600.664062 429.703125 C 600.664062 429.703125 586.867188 453.984375 566.027344 456.570312 C 560.757812 457.226562 556.273438 456.3125 552.511719 454.589844 C 555.28125 450.050781 555.914062 445.566406 555.699219 441.859375 Z M 555.699219 441.859375 "/>
<path style=" stroke:none;fill-rule:nonzero;fill:url(#linear0);" d="M 527.726562 427.945312 C 534.308594 425.238281 539.894531 430.636719 539.894531 430.636719 C 546.417969 437.316406 551.59375 440.6875 555.699219 441.859375 C 555.914062 445.566406 555.28125 450.050781 552.511719 454.589844 C 544.371094 450.859375 539.625 443.324219 537.671875 439.5625 C 536.96875 438.207031 535.320312 437.632812 533.945312 438.296875 C 532.550781 438.972656 531.113281 440 531.023438 441.402344 C 530.84375 444.15625 527.5625 444.320312 527.542969 443.300781 C 527.523438 442.285156 530.085938 436.835938 530.085938 436.835938 C 530.085938 436.835938 522.519531 441.691406 519.574219 443.546875 C 516.628906 445.402344 514.121094 442.339844 514.121094 442.339844 C 514.121094 442.339844 521.144531 430.648438 527.726562 427.945312 Z M 527.726562 427.945312 "/>
<path style=" stroke:none;fill-rule:nonzero;fill:rgb(73.725492%,73.725492%,74.509805%);fill-opacity:1;" d="M 649.742188 385.132812 C 649.742188 385.132812 629.441406 371.28125 580.417969 396.328125 C 580.417969 396.328125 575.367188 402.730469 577.734375 409.945312 C 580.097656 417.160156 609.207031 456.207031 610.339844 474.539062 C 610.339844 474.539062 630.234375 486.253906 656.066406 474.640625 C 656.066406 474.640625 664.730469 426.234375 649.742188 385.132812 Z M 649.742188 385.132812 "/>
<path style=" stroke:none;fill-rule:nonzero;fill:rgb(97.254902%,76.078433%,64.705884%);fill-opacity:1;" d="M 607.472656 367.425781 L 615.496094 383.144531 C 616.289062 384.707031 616.125 386.59375 615.03125 387.964844 C 612.820312 390.730469 608.210938 394.453125 600.339844 392.054688 C 598 391.339844 596.207031 389.4375 595.644531 387.054688 L 591.484375 369.511719 Z M 607.472656 367.425781 "/>
<path style=" stroke:none;fill-rule:nonzero;fill:rgb(73.72549%,73.72549%,74.509804%);fill-opacity:1;" d="M 664.773438 440.023438 C 666.148438 430.464844 640.898438 411.945312 640.898438 411.945312 L 649.742188 385.132812 C 649.742188 385.132812 697.925781 419.515625 687.792969 447.597656 C 686.339844 451.621094 684.171875 454.554688 681.53125 456.632812 C 676.429688 446.167969 669.507812 441.820312 664.773438 440.023438 Z M 664.773438 440.023438 "/>
<path style=" stroke:none;fill-rule:nonzero;fill:rgb(97.254902%,76.078433%,64.705884%);fill-opacity:1;" d="M 629.546875 442.671875 C 629.546875 442.671875 658.109375 450.652344 664.035156 441.957031 C 664.4375 441.367188 664.675781 440.71875 664.773438 440.023438 C 669.507812 441.820312 676.429688 446.167969 681.53125 456.632812 C 667.96875 467.300781 641.820312 455.34375 634.714844 451.757812 C 633.546875 451.167969 632.203125 451.050781 630.953125 451.441406 C 628.425781 452.230469 624.046875 453.457031 621.609375 453.320312 C 618.039062 453.125 614.207031 466.023438 608.132812 462.757812 C 608.132812 462.757812 610.894531 440.722656 629.546875 442.671875 Z M 629.546875 442.671875 "/>
<path style=" stroke:none;fill-rule:nonzero;fill:rgb(97.254902%,76.078433%,64.705884%);fill-opacity:1;" d="M 597.191406 341.738281 C 596.933594 341.957031 586.355469 360.4375 580.96875 369.859375 C 579.324219 372.734375 580.554688 376.398438 583.601562 377.703125 L 585.933594 378.703125 C 589.121094 380.070312 595.976562 381.214844 598.675781 379.035156 L 615.6875 361.078125 C 615.6875 361.078125 602.910156 336.785156 597.191406 341.738281 Z M 597.191406 341.738281 "/>
<path style=" stroke:none;fill-rule:nonzero;fill:rgb(23.137255%,27.058825%,35.294119%);fill-opacity:1;" d="M 620.480469 356.179688 C 622.566406 355.007812 625.074219 352.632812 623.121094 348.4375 C 621.136719 344.167969 617.214844 343.796875 614.6875 344.070312 C 613.664062 344.179688 612.742188 343.53125 612.445312 342.546875 C 612.273438 341.988281 611.859375 341.492188 610.964844 341.351562 C 609.757812 341.160156 609.007812 339.929688 609.324219 338.746094 C 609.929688 336.476562 609.824219 333.398438 606.175781 331.1875 C 599.703125 327.269531 593.648438 332.960938 591.964844 337.910156 C 590.277344 342.859375 597.539062 346.710938 602.175781 347.496094 C 605.699219 348.09375 607.421875 352.160156 608.042969 354.074219 C 608.238281 354.683594 608.144531 355.34375 607.796875 355.875 L 602.625 363.734375 C 604.046875 365.523438 605.304688 367.414062 606.550781 369.328125 C 607.015625 368.828125 607.421875 368.410156 607.738281 368.117188 C 609.984375 366.058594 613.980469 367.121094 615.625 367.6875 C 616.164062 367.875 616.75 367.828125 617.257812 367.566406 C 619.046875 366.640625 622.664062 364.042969 619.699219 359.125 C 619.082031 358.09375 619.433594 356.769531 620.480469 356.179688 Z M 620.480469 356.179688 "/>
<path style=" stroke:none;fill-rule:nonzero;fill:rgb(97.254902%,76.078433%,64.705884%);fill-opacity:1;" d="M 604.664062 372.6875 C 604.664062 372.6875 607.972656 364.1875 611.730469 364.664062 C 615.488281 365.136719 618.300781 369.019531 613.449219 373.046875 C 607.417969 378.058594 604.664062 372.6875 604.664062 372.6875 Z M 604.664062 372.6875 "/>
<path style=" stroke:none;fill-rule:nonzero;fill:rgb(71.372551%,30.980393%,16.862746%);fill-opacity:1;" d="M 593.078125 460.859375 C 593.027344 460.863281 592.976562 460.863281 592.921875 460.863281 L 526.195312 460.789062 C 524.542969 460.789062 523.210938 459.449219 523.210938 457.800781 C 523.210938 456.152344 524.554688 454.789062 526.199219 454.816406 L 592.929688 454.890625 C 594.578125 454.890625 595.914062 456.230469 595.914062 457.878906 C 595.910156 459.476562 594.65625 460.78125 593.078125 460.859375 Z M 593.078125 460.859375 "/>
<path style=" stroke:none;fill-rule:nonzero;fill:rgb(71.372551%,30.980393%,16.862746%);fill-opacity:1;" d="M 466.207031 400.273438 L 521.78125 400.273438 C 525.878906 400.273438 529.613281 402.640625 531.359375 406.347656 L 557.050781 460.824219 L 487.988281 460.824219 C 485.347656 460.824219 482.972656 459.210938 482.003906 456.753906 L 462.082031 406.34375 C 460.929688 403.429688 463.078125 400.273438 466.207031 400.273438 Z M 466.207031 400.273438 "/>
<path style=" stroke:none;fill-rule:nonzero;fill:rgb(100%,100%,100%);fill-opacity:1;" d="M 505.359375 428.207031 C 506.5625 431.945312 505.675781 435.582031 503.371094 436.320312 C 501.070312 437.0625 498.230469 434.628906 497.023438 430.886719 C 495.820312 427.148438 496.710938 423.511719 499.011719 422.773438 C 501.3125 422.03125 504.15625 424.464844 505.359375 428.207031 Z M 505.359375 428.207031 "/>
<path style=" stroke:none;fill-rule:nonzero;fill:rgb(49.019608%,53.725493%,63.529414%);fill-opacity:1;" d="M 475.21875 603.980469 C 474.847656 603.980469 474.472656 603.910156 474.109375 603.757812 C 472.6875 603.164062 472.03125 601.570312 472.644531 600.191406 L 531.453125 467.835938 C 532.0625 466.460938 533.710938 465.824219 535.136719 466.414062 C 536.558594 467.007812 537.214844 468.605469 536.605469 469.980469 L 477.796875 602.335938 C 477.339844 603.363281 476.304688 603.980469 475.21875 603.980469 Z M 475.21875 603.980469 "/>
<path style=" stroke:none;fill-rule:nonzero;fill:rgb(49.019608%,53.725493%,63.529414%);fill-opacity:1;" d="M 541.46875 603.980469 C 540.382812 603.980469 539.347656 603.363281 538.890625 602.335938 L 480.082031 469.980469 C 479.46875 468.605469 480.128906 467.007812 481.550781 466.414062 C 482.972656 465.824219 484.621094 466.457031 485.234375 467.835938 L 544.042969 600.191406 C 544.65625 601.566406 543.996094 603.164062 542.574219 603.757812 C 542.214844 603.910156 541.839844 603.980469 541.46875 603.980469 Z M 541.46875 603.980469 "/>
<path style=" stroke:none;fill-rule:nonzero;fill:rgb(49.019608%,53.725493%,63.529414%);fill-opacity:1;" d="M 657.257812 603.980469 C 656.886719 603.980469 656.511719 603.910156 656.152344 603.757812 C 654.726562 603.164062 654.070312 601.570312 654.683594 600.191406 L 713.492188 467.835938 C 714.105469 466.460938 715.75 465.824219 717.175781 466.414062 C 718.597656 467.007812 719.253906 468.605469 718.644531 469.980469 L 659.835938 602.335938 C 659.378906 603.363281 658.34375 603.980469 657.257812 603.980469 Z M 657.257812 603.980469 "/>
<path style=" stroke:none;fill-rule:nonzero;fill:rgb(49.019608%,53.725493%,63.529414%);fill-opacity:1;" d="M 723.507812 603.980469 C 722.421875 603.980469 721.386719 603.363281 720.929688 602.335938 L 662.121094 469.980469 C 661.507812 468.605469 662.167969 467.007812 663.589844 466.414062 C 665.011719 465.824219 666.660156 466.457031 667.273438 467.835938 L 726.082031 600.191406 C 726.695312 601.566406 726.039062 603.164062 724.613281 603.757812 C 724.253906 603.910156 723.878906 603.980469 723.507812 603.980469 Z M 723.507812 603.980469 "/>
<path style=" stroke:none;fill-rule:nonzero;fill:rgb(49.019608%,53.725493%,63.529414%);fill-opacity:1;" d="M 730.40625 463.75 C 730.554688 462.882812 730.351562 461.984375 729.847656 461.300781 C 729.347656 460.621094 728.597656 460.226562 727.808594 460.226562 L 460.269531 460.226562 C 459.230469 460.226562 458.261719 460.816406 457.703125 461.796875 C 457.144531 462.777344 457.070312 464.007812 457.503906 465.066406 L 460.402344 472.089844 C 461.066406 473.699219 462.507812 474.726562 464.089844 474.726562 L 725.972656 474.726562 C 727.445312 474.726562 728.710938 473.558594 728.988281 471.941406 Z M 730.40625 463.75 "/>
</g>
</svg>
